<?xml version="1.0" standalone="no"?><!DOCTYPE svg PUBLIC "-//W3C//DTD SVG 1.1//EN" "http://www.w3.org/Graphics/SVG/1.1/DTD/svg11.dtd"><svg t="1627005915291" class="icon" viewBox="0 0 1024 1024" version="1.1" xmlns="http://www.w3.org/2000/svg" p-id="9605" xmlns:xlink="http://www.w3.org/1999/xlink" width="32" height="32"><defs><style type="text/css"></style></defs><path d="M659.109967 347.276922l18.772996 130.592971h175.37596c37.749992 0 74.409983 30.309993 81.918982 67.446985l41.232991 206.435953c7.508998 37.273992-17.202996 67.446985-55.227988 67.446985H102.877092c-37.955991 0-62.667986-30.309993-55.294988-67.446985l41.299991-206.435953c7.509998-37.273992 44.64699-67.446985 81.919982-67.446985h175.44396l18.636996-130.592971a204.797954 204.797954 0 1 1 294.226934 0zM34.133107 955.732785c0-37.682992 30.719993-68.266985 68.743985-68.266984h818.237816c37.955991 0 68.743985 30.309993 68.743985 68.266984 0 37.681992-30.719993 68.265985-68.743985 68.265985H102.877092a68.333985 68.333985 0 0 1-68.743985-68.265985z" p-id="9606"></path></svg>