<?xml version="1.0" standalone="no"?>
<!DOCTYPE svg PUBLIC "-//W3C//DTD SVG 20010904//EN"
 "http://www.w3.org/TR/2001/REC-SVG-20010904/DTD/svg10.dtd">
<svg version="1.0" xmlns="http://www.w3.org/2000/svg"
 width="300.000000pt" height="300.000000pt" viewBox="0 0 300.000000 300.000000"
 preserveAspectRatio="xMidYMid meet">

<g transform="translate(0.000000,300.000000) scale(0.100000,-0.100000)"
fill="#000000" stroke="none">
<path d="M960 2170 c-31 -31 -28 -113 5 -145 l24 -25 508 0 c389 0 514 3 533
13 22 11 25 20 28 77 5 108 47 100 -559 100 -506 0 -520 -1 -539 -20z"/>
<path d="M1470 1909 c-31 -12 -538 -516 -551 -547 -11 -29 8 -69 51 -106 58
-48 67 -43 262 151 l178 177 0 -477 c0 -464 1 -478 20 -497 15 -15 33 -20 74
-20 47 0 57 4 75 26 21 26 21 36 21 492 l0 466 173 -172 c136 -134 179 -172
199 -172 31 0 83 40 104 81 13 25 13 32 0 57 -18 33 -527 542 -543 542 -6 0
-17 2 -25 4 -7 3 -24 0 -38 -5z"/>
</g>
</svg>
