<?xml version="1.0" standalone="no"?><!DOCTYPE svg PUBLIC "-//W3C//DTD SVG 1.1//EN" "http://www.w3.org/Graphics/SVG/1.1/DTD/svg11.dtd"><svg t="1627024192400" class="icon" viewBox="0 0 1024 1024" version="1.1" xmlns="http://www.w3.org/2000/svg" p-id="11076" xmlns:xlink="http://www.w3.org/1999/xlink" width="32" height="32"><defs><style type="text/css"></style></defs><path d="M424.417781 135.449925 319.72537 135.449925c-56.311517 0-86.174662 31.756261-99.939153 68.947302l-73.285097 195.251939c-29.065989 3.847631-80.493266 39.089273-80.493266 105.778138l0 248.405533 82.421174 0 0 61.85579c0 97.713462 111.556749 96.578616 111.556749 0l0-61.85579 504.027421 0 0 61.85579c0 96.578616 111.558795 97.713462 111.558795 0l0-61.85579 82.420151 0L957.992145 505.427304c0.029676-66.688865-51.417043-101.930507-80.443124-105.778138l0 0L804.281321 204.397227c-13.784958-37.19104-43.652196-68.947302-100.026134-68.947302L600.775394 135.449925 424.417781 135.449925 424.417781 135.449925zM245.423107 603.431386c-34.909068 0-63.23623-30.103622-63.23623-67.270103 0-37.19104 28.327162-67.294662 63.23623-67.294662 34.900881 0 63.210647 30.103622 63.210647 67.294662C308.633754 573.331857 280.323988 603.431386 245.423107 603.431386L245.423107 603.431386 245.423107 603.431386zM222.348576 395.066801l55.157227-151.069671c6.89913-21.563108 17.232476-37.195134 41.417295-37.44482l386.219295 0c24.071232 0.249687 34.42709 15.881712 41.332361 37.44482l55.17667 151.069671L222.348576 395.066801 222.348576 395.066801 222.348576 395.066801zM778.600429 603.431386c-34.905998 0-63.210647-30.103622-63.210647-67.270103 0-37.19104 28.308743-67.294662 63.210647-67.294662 34.945907 0 63.254649 30.103622 63.254649 67.294662C841.856102 573.331857 813.547359 603.431386 778.600429 603.431386L778.600429 603.431386 778.600429 603.431386zM778.600429 603.431386" p-id="11077"></path></svg>