<?xml version="1.0" standalone="no"?><!DOCTYPE svg PUBLIC "-//W3C//DTD SVG 1.1//EN" "http://www.w3.org/Graphics/SVG/1.1/DTD/svg11.dtd"><svg t="1627870805886" class="icon" viewBox="0 0 1024 1024" version="1.1" xmlns="http://www.w3.org/2000/svg" p-id="5265" xmlns:xlink="http://www.w3.org/1999/xlink" width="32" height="32"><defs><style type="text/css">@font-face { font-family: feedback-iconfont; src: url("//at.alicdn.com/t/font_1031158_1uhr8ri0pk5.eot?#iefix") format("embedded-opentype"), url("//at.alicdn.com/t/font_1031158_1uhr8ri0pk5.woff2") format("woff2"), url("//at.alicdn.com/t/font_1031158_1uhr8ri0pk5.woff") format("woff"), url("//at.alicdn.com/t/font_1031158_1uhr8ri0pk5.ttf") format("truetype"), url("//at.alicdn.com/t/font_1031158_1uhr8ri0pk5.svg#iconfont") format("svg"); }
</style></defs><path d="M924.672 68.608H285.696c-33.792 0-61.44 27.648-61.44 61.44v86.528H110.592c-33.792 0-61.44 27.648-61.44 61.44V742.4c0 33.792 27.648 61.44 61.44 61.44h113.664v86.528c0 33.792 27.648 61.44 61.44 61.44h639.488c33.792 0 61.44-27.648 61.44-61.44V130.048c-0.512-33.792-28.16-61.44-61.952-61.44zM278.016 694.272H156.672l121.344-183.808-121.344-183.808h121.344l62.464 92.16 61.952-92.16h121.344L402.432 510.464l121.344 183.808H401.92l-61.952-91.648-61.952 91.648z m632.832 126.464c0 26.624-21.504 48.64-47.616 48.64H350.72c-26.112 0-47.616-22.016-47.616-48.64V803.84h273.92c33.28 0 60.416-27.648 60.416-61.44v-40.96h224.256c20.48 0 36.864-16.896 36.864-37.888v-1.536c0-20.992-16.384-37.888-36.864-37.888h-224.256v-74.752h224.256c20.48 0 36.864-16.896 36.864-37.888v-1.536c0-20.992-16.384-37.888-36.864-37.888h-224.256V396.8h224.256c20.48 0 36.864-16.896 36.864-37.888v-1.536c0-20.992-16.384-37.888-36.864-37.888h-224.256v-41.472c0-33.792-27.136-61.44-60.416-61.44H303.104V199.68c0-26.624 21.504-48.64 47.616-48.64h512.512c26.112 0 47.616 22.016 47.616 48.64v621.056z" fill="" p-id="5266"></path></svg>