<?xml version="1.0" standalone="no"?><!DOCTYPE svg PUBLIC "-//W3C//DTD SVG 1.1//EN" "http://www.w3.org/Graphics/SVG/1.1/DTD/svg11.dtd"><svg class="icon" width="200px" height="200.00px" viewBox="0 0 1024 1024" version="1.1" xmlns="http://www.w3.org/2000/svg"><path d="M992 128H256V32c0-17.6-14.4-32-32-32H160c-17.6 0-32 14.4-32 32v96H32C14.4 128 0 142.4 0 160v64c0 17.6 14.4 32 32 32h96v736c0 17.6 14.4 32 32 32h64c17.6 0 32-14.4 32-32V256h736c17.6 0 32-14.4 32-32V160c0-17.6-14.4-32-32-32zM320 768h640V320H320v448z"  /></svg>