<?xml version="1.0" standalone="no"?><!DOCTYPE svg PUBLIC "-//W3C//DTD SVG 1.1//EN" "http://www.w3.org/Graphics/SVG/1.1/DTD/svg11.dtd"><svg t="1598320065619" class="icon" viewBox="0 0 1024 1024" version="1.1" xmlns="http://www.w3.org/2000/svg" p-id="4467" xmlns:xlink="http://www.w3.org/1999/xlink" width="200" height="200"><defs><style type="text/css"></style></defs><path d="M857.728 269.781333H702.72C692.650667 189.013333 619.434667 128 532.394667 128S372.053333 188.970667 362.026667 269.781333H208.938667c-21.12 0-38.272 16.042667-38.272 35.797334 0 19.754667 17.152 35.754667 38.272 35.797333h55.466666v518.826667c0 19.797333 17.152 35.797333 38.314667 35.797333H762.026667c21.162667 0 38.272-16 38.272-35.797333V341.376h57.429333c21.12 0 38.272-16.042667 38.272-35.84 0-19.712-17.152-35.754667-38.272-35.754667z m-325.333333-71.552c45.44 0 84.650667 29.866667 93.738666 71.552H438.613333c9.088-41.642667 48.298667-71.552 93.781334-71.552z m-114.858667 536.746667c0 19.754667-17.109333 35.797333-38.272 35.797333-21.12 0-38.272-16.042667-38.272-35.797333v-286.293333c0-19.754667 17.152-35.754667 38.272-35.754667 21.162667 0 38.272 16 38.272 35.797333v286.250667z m153.130667 0c0 19.754667-17.152 35.797333-38.272 35.797333-21.162667 0-38.314667-16.042667-38.314667-35.797333v-286.293333c0-19.754667 17.152-35.754667 38.314667-35.754667 21.12 0 38.272 16 38.272 35.797333v286.250667z m153.088 0c0 19.754667-17.152 35.797333-38.272 35.797333s-38.272-16.042667-38.272-35.797333v-286.293333c0-19.754667 17.152-35.754667 38.272-35.754667s38.272 16 38.272 35.797333v286.250667z" p-id="4468"></path></svg>