<?xml version="1.0" standalone="no"?><!DOCTYPE svg PUBLIC "-//W3C//DTD SVG 1.1//EN" "http://www.w3.org/Graphics/SVG/1.1/DTD/svg11.dtd"><svg t="1602559819335" class="icon" viewBox="0 0 1024 1024" version="1.1" xmlns="http://www.w3.org/2000/svg" p-id="2496" data-spm-anchor-id="a313x.7781069.0.i2" xmlns:xlink="http://www.w3.org/1999/xlink" width="200" height="200"><defs><style type="text/css"></style></defs><path d="M29.232987 257.852625h204.709928c7.778977 0 15.189477 3.275359 20.675703 9.130063a32.344169 32.344169 0 0 1 8.597817 22.108672v703.219543a32.344169 32.344169 0 0 1-8.597817 22.108672 28.331854 28.331854 0 0 1-20.675703 9.130063h-204.709928C13.101845 1023.549638 0.00041 1009.547479 0.00041 992.310903V289.050418a32.344169 32.344169 0 0 1 8.597817-22.108672 28.331854 28.331854 0 0 1 20.63476-9.130063zM409.420265 0h204.709927c7.778977 0 15.189477 3.275359 20.675703 9.171005a32.344169 32.344169 0 0 1 8.597817 22.108672v961.031226c0 17.236576-13.101435 31.238735-29.27352 31.238735h-204.709927c-16.131142 0-29.232578-14.002159-29.232578-31.238735V31.238735a32.344169 32.344169 0 0 1 8.556875-22.108672A28.331854 28.331854 0 0 1 409.420265 0z m380.187277 468.785734h204.709928c7.778977 0 15.148535 3.275359 20.675703 9.171005a32.344169 32.344169 0 0 1 8.556875 22.108672v492.245492c0 17.236576-13.101435 31.238735-29.232578 31.238735h-204.709928a28.331854 28.331854 0 0 1-20.675702-9.171005 32.344169 32.344169 0 0 1-8.597817-22.108672V500.106353a32.344169 32.344169 0 0 1 8.597817-22.108672 28.331854 28.331854 0 0 1 20.675702-9.171005z" p-id="2497" data-spm-anchor-id="a313x.7781069.0.i3" class="selected"></path></svg>