<?xml version="1.0" standalone="no"?><!DOCTYPE svg PUBLIC "-//W3C//DTD SVG 1.1//EN" "http://www.w3.org/Graphics/SVG/1.1/DTD/svg11.dtd"><svg t="1602569443320" class="icon" viewBox="0 0 1024 1024" version="1.1" xmlns="http://www.w3.org/2000/svg" p-id="3090" xmlns:xlink="http://www.w3.org/1999/xlink" width="200" height="200"><defs><style type="text/css"></style></defs><path d="M320.1 895.3V892c0-34.8-28.2-63-63-63h-64.7V192.5H257c34.8 0 63-28.2 63-63 0-35.5-29.1-64.6-64.6-64.6h-99.6c-50.1 0-91.1 41-91.1 91.1v712.6c0 50.1 41 91.1 91.1 91.1h99.6c35.6 0.1 64.7-28.9 64.7-64.4z" p-id="3091"></path><path d="M648 248.7c24.9 24.9 24.9 65.6 0 90.5L536.4 450.7h359.9c34.5 0 62.8 28.3 62.8 62.8s-28.3 62.8-62.8 62.8H537.8L648 686.4c24.9 24.9 24.9 65.6 0 90.5-24.9 24.9-65.6 24.9-90.5 0L338.7 558.1c-12.5-12.5-18.7-28.9-18.7-45.3s6.2-32.8 18.7-45.3l218.8-218.8c24.9-24.9 65.6-24.9 90.5 0z" p-id="3092"></path></svg>