<?xml version="1.0" standalone="no"?><!DOCTYPE svg PUBLIC "-//W3C//DTD SVG 1.1//EN" "http://www.w3.org/Graphics/SVG/1.1/DTD/svg11.dtd"><svg class="icon" width="200px" height="200.00px" viewBox="0 0 1024 1024" version="1.1" xmlns="http://www.w3.org/2000/svg"><path d="M292.571429 694.857143c0-40.557714-32.585143-73.142857-73.142858-73.142857s-73.142857 32.585143-73.142857 73.142857 32.585143 73.142857 73.142857 73.142857 73.142857-32.585143 73.142858-73.142857z m585.142857 0c0-40.557714-32.585143-73.142857-73.142857-73.142857s-73.142857 32.585143-73.142858 73.142857 32.585143 73.142857 73.142858 73.142857 73.142857-32.585143 73.142857-73.142857z m-26.294857-226.304l-41.142858-219.428572A36.717714 36.717714 0 0 0 774.290286 219.428571H249.709714c-17.700571 0-32.585143 12.580571-35.986285 29.696l-41.142858 219.428572A36.717714 36.717714 0 0 0 208.566857 512h606.866286c22.857143 0 40.009143-20.553143 35.986286-43.446857zM722.285714 118.857143A27.062857 27.062857 0 0 0 694.857143 91.428571H329.142857A27.428571 27.428571 0 0 0 329.142857 146.285714h365.714286a27.062857 27.062857 0 0 0 27.428571-27.428571zM950.857143 533.138286V877.714286h-73.142857v73.142857c0 40.557714-32.585143 73.142857-73.142857 73.142857s-73.142857-32.585143-73.142858-73.142857v-73.142857H292.571429v73.142857c0 40.557714-32.585143 73.142857-73.142858 73.142857s-73.142857-32.585143-73.142857-73.142857v-73.142857H73.142857v-344.576c0-46.848 3.986286-81.700571 14.299429-127.414857L146.285714 146.285714c10.861714-91.428571 170.861714-146.285714 365.714286-146.285714s354.852571 54.857143 365.714286 146.285714l60.013714 259.437715c10.276571 45.714286 13.129143 80.566857 13.129143 127.414857z"  /></svg>