<?xml version="1.0" standalone="no"?><!DOCTYPE svg PUBLIC "-//W3C//DTD SVG 1.1//EN" "http://www.w3.org/Graphics/SVG/1.1/DTD/svg11.dtd"><svg class="icon" width="200px" height="200.00px" viewBox="0 0 1024 1024" version="1.1" xmlns="http://www.w3.org/2000/svg"><path d="M974.956 240.425a92.093 92.093 0 0 0-69.243-94.863 607.534 607.534 0 0 0-81.7-4.158v58.163a78.244 78.244 0 0 1-106.634 69.238 80.343 80.343 0 0 1-49.163-75.479v-52.613H355.241v38.083c0.701 9.216 0.701 18.483 0 27.704-4.716 42.757-43.07 73.687-85.857 69.232-40.684-5.324-70.656-40.698-69.243-81.704V142.1h-69.233a47.053 47.053 0 0 0-12.467 0 94.853 94.853 0 0 0-69.243 93.476v637.712a94.188 94.188 0 0 0 23.552 70.318 94.188 94.188 0 0 0 67.154 31.462h737.418a94.874 94.874 0 0 0 97.628-101.094V240.425z m-60.928 216.028v383.59a59.576 59.576 0 0 1-6.237 26.317 28.39 28.39 0 0 1-27.003 13.85H142.674a32.553 32.553 0 0 1-36.004-37.386V398.986h806.656l0.702 57.467z m0 0M277.693 238.346a47.043 47.043 0 0 0 33.147-15.012 47.048 47.048 0 0 0 12.555-34.15V96.399a49.193 49.193 0 0 0-9.001-33.93 44.319 44.319 0 0 0-50.55-11.766A46.387 46.387 0 0 0 231.3 95.708v94.172a47.78 47.78 0 0 0 46.392 48.466z m465.306 0a47.063 47.063 0 0 0 33.147-15.012 47.043 47.043 0 0 0 12.549-34.15V96.399a49.188 49.188 0 0 0-12.462-33.93 44.319 44.319 0 0 0-50.55-11.766 46.387 46.387 0 0 0-29.081 44.314v94.167a47.826 47.826 0 0 0 13.004 34.202A47.831 47.831 0 0 0 743 238.346z m-14.54 481.92h121.86v94.172H728.46v-94.172z m-186.266 0h121.866v94.172H542.193v-94.172z m-186.256 94.167h122.558v-95.56H355.937v95.56z m-186.255-94.167h121.866v94.172H169.682v-94.172z m558.776-128.798H850.32v94.172H728.46v-94.172z m-186.265 0.696h121.866v94.172H542.193v-94.172z m-186.256 0h121.861v94.172h-121.86v-94.172z m-63.703 0H170.368v94.172h121.866v-94.172z m435.533-128.087h121.866v94.162H727.767v-94.162z m-185.574 0h121.866v94.162H542.193v-94.162z m-63.698 0H355.937v94.162h122.558v-94.162z m0 0" /></svg>