<?xml version="1.0" encoding="UTF-8" standalone="no"?>
<svg
   xmlns:dc="http://purl.org/dc/elements/1.1/"
   xmlns:cc="http://creativecommons.org/ns#"
   xmlns:rdf="http://www.w3.org/1999/02/22-rdf-syntax-ns#"
   xmlns:svg="http://www.w3.org/2000/svg"
   xmlns="http://www.w3.org/2000/svg"
   viewBox="0 0 1590.8 1122.52"
   height="1122.52"
   width="1590.8"
   xml:space="preserve"
   id="svg2"
   version="1.1"><metadata
     id="metadata8"><rdf:RDF><cc:Work
         rdf:about=""><dc:format>image/svg+xml</dc:format><dc:type
           rdf:resource="http://purl.org/dc/dcmitype/StillImage" /></cc:Work></rdf:RDF></metadata><defs
     id="defs6"><clipPath
       id="clipPath20"
       clipPathUnits="userSpaceOnUse"><path
         id="path18"
         d="M 0,841.89 H 1193.102 V 0 H 0 Z" /></clipPath></defs><g
     transform="matrix(1.3333333,0,0,-1.3333333,0,1122.52)"
     id="g10"><path
       id="path12"
       style="fill:#006549;fill-opacity:1;fill-rule:nonzero;stroke:none"
       d="M 588.474,338.265 H 63.292 v 243.813 h 525.182 z" /><g
       id="g14"><g
         clip-path="url(#clipPath20)"
         id="g16"><g
           transform="translate(101.4639,385.1426)"
           id="g22"><path
             id="path24"
             style="fill:#ffffff;fill-opacity:1;fill-rule:nonzero;stroke:none"
             d="m 0,0 c 7.106,0.16 12.25,0.957 15.393,2.417 5.045,2.477 7.582,7.201 7.582,14.215 v 116.01 c 0,6.958 -2.415,11.613 -7.199,13.995 -2.987,1.434 -8.258,2.325 -15.776,2.637 v 6.234 h 87.88 v -6.234 c -7.779,-0.312 -13.173,-1.147 -16.128,-2.512 -4.854,-2.398 -7.261,-7.088 -7.261,-14.12 V 16.632 C 64.491,10 66.43,5.596 70.323,3.353 74.259,1.113 80.101,0 87.88,0 V -6.23 H 0 Z" /></g><g
           transform="translate(325.3799,539.3784)"
           id="g26"><path
             id="path28"
             style="fill:#ffffff;fill-opacity:1;fill-rule:nonzero;stroke:none"
             d="m 0,0 c 10.835,-3.725 16.845,-5.619 18.111,-5.619 3.157,0 5.736,1.217 7.682,3.643 1.95,2.408 3.166,4.928 3.702,7.587 h 6.186 v -56.123 h -6.186 c -6.183,12.171 -12.371,21.778 -18.683,28.799 -11.783,12.951 -25.168,19.423 -40.198,19.423 -16.945,0 -28.96,-6.939 -36.069,-20.77 -7.082,-13.858 -10.619,-32.453 -10.619,-55.786 0,-17.183 2.11,-31.313 6.296,-42.397 7.789,-20.757 22.189,-31.145 43.259,-31.145 12.949,0 24.946,3.419 36.026,10.304 6.373,3.968 13.889,10.33 22.561,19.091 l 7.59,-5.694 c -9.862,-10.499 -18.506,-18.082 -25.936,-22.768 -13.294,-8.39 -28.055,-12.574 -44.262,-12.574 -24.807,0 -45.605,7.016 -62.357,21.046 -18.54,15.512 -27.78,36.395 -27.78,62.66 0,26.047 8.952,47.117 26.852,63.255 16.818,15.119 37.439,22.679 61.844,22.679 C -21.503,5.611 -10.841,3.75 0,0" /></g><g
           transform="translate(380.2559,378.9121)"
           id="g30"><path
             id="path32"
             style="fill:#ffffff;fill-opacity:1;fill-rule:nonzero;stroke:none"
             d="m 0,0 h 79.504 c 28.684,0 51.448,8.438 68.205,25.361 14.895,15.02 22.344,33.387 22.344,55.044 0,24.123 -7.403,43.4 -22.209,57.719 -16.31,15.751 -39.93,23.615 -70.931,23.615 H 0 v -6.235 c 6.659,-0.555 11.351,-1.528 14.096,-2.923 4.742,-2.436 7.109,-6.73 7.109,-12.884 V 22.032 c 0,-6.396 -2.508,-10.82 -7.476,-13.233 C 10.873,7.474 6.334,6.615 0,6.23 Z m 61.836,21.83 v 118.085 c 0,4.915 0.668,8.213 1.965,9.949 1.998,2.658 6.247,3.966 12.721,3.966 19.765,0 33.823,-9.791 42.109,-29.386 5.128,-12.188 7.687,-26.753 7.687,-43.693 0,-28.51 -4.759,-47.777 -14.316,-57.809 C 102.461,12.902 90.248,7.911 75.417,7.911 c -5.42,0 -8.989,1.068 -10.663,3.256 -1.685,2.197 -2.656,5.738 -2.918,10.663" /></g><g
           transform="translate(76.9336,275.1953)"
           id="g34"><path
             id="path36"
             style="fill:#ffffff;fill-opacity:1;fill-rule:nonzero;stroke:none"
             d="M 0,0 H 15.929 L 11.024,13.09 C 9.53,17.063 8.417,20.335 7.693,22.893 7.092,19.857 6.247,16.854 5.159,13.86 Z M -13.558,-19.411 4.486,27.858 h 6.698 L 30.417,-19.411 H 23.334 L 17.852,-5.099 H -1.796 l -5.159,-14.312 z" /></g><g
           transform="translate(160.4551,272.3555)"
           id="g38"><path
             id="path40"
             style="fill:#ffffff;fill-opacity:1;fill-rule:nonzero;stroke:none"
             d="m 0,0 6.22,-1.576 c -1.304,-5.135 -3.649,-9.056 -7.036,-11.751 -3.388,-2.694 -7.528,-4.05 -12.419,-4.05 -5.067,0 -9.182,1.036 -12.357,3.116 -3.174,2.073 -5.588,5.077 -7.244,9.012 -1.654,3.927 -2.484,8.154 -2.484,12.664 0,4.923 0.937,9.218 2.806,12.886 1.87,3.662 4.529,6.443 7.981,8.347 3.45,1.899 7.246,2.85 11.394,2.85 4.7,0 8.655,-1.201 11.857,-3.608 3.205,-2.408 5.438,-5.794 6.699,-10.154 l -6.121,-1.455 c -1.092,3.442 -2.671,5.948 -4.744,7.513 -2.073,1.574 -4.68,2.351 -7.82,2.351 -3.611,0 -6.628,-0.865 -9.055,-2.61 -2.426,-1.741 -4.13,-4.076 -5.111,-7.009 -0.984,-2.938 -1.474,-5.96 -1.474,-9.079 0,-4.015 0.581,-7.523 1.745,-10.521 1.163,-2.999 2.977,-5.242 5.434,-6.727 2.456,-1.476 5.118,-2.224 7.98,-2.224 3.481,0 6.433,1.013 8.845,3.031 C -2.487,-6.972 -0.852,-3.973 0,0" /></g><g
           transform="translate(177.3774,272.9053)"
           id="g42"><path
             id="path44"
             style="fill:#ffffff;fill-opacity:1;fill-rule:nonzero;stroke:none"
             d="m 0,0 c 0,-4.387 0.954,-7.666 2.852,-9.851 1.902,-2.177 4.298,-3.274 7.181,-3.274 2.863,0 5.246,1.102 7.148,3.29 1.901,2.196 2.852,5.535 2.852,10.03 0,4.234 -0.956,7.441 -2.869,9.623 C 15.252,12 12.874,13.09 10.033,13.09 7.15,13.09 4.754,12.005 2.852,9.834 0.954,7.663 0,4.384 0,0 m -5.928,0 c 0,6.339 1.751,11.034 5.256,14.09 2.927,2.538 6.497,3.804 10.705,3.804 4.679,0 8.503,-1.543 11.475,-4.63 2.968,-3.081 4.453,-7.342 4.453,-12.781 0,-4.402 -0.657,-7.872 -1.97,-10.394 -1.315,-2.525 -3.227,-4.486 -5.736,-5.881 -2.512,-1.4 -5.253,-2.099 -8.222,-2.099 -4.766,0 -8.618,1.532 -11.555,4.611 -2.937,3.074 -4.406,7.499 -4.406,13.28" /></g><g
           transform="translate(210.1025,255.7842)"
           id="g46"><path
             id="path48"
             style="fill:#ffffff;fill-opacity:1;fill-rule:nonzero;stroke:none"
             d="m 0,0 v 34.24 h 5.193 v -4.869 c 2.499,3.766 6.109,5.644 10.83,5.644 2.054,0 3.939,-0.372 5.657,-1.111 1.719,-0.743 3.01,-1.717 3.864,-2.921 0.855,-1.205 1.452,-2.634 1.793,-4.287 0.215,-1.079 0.322,-2.957 0.322,-5.639 V 0 h -5.766 v 20.829 c 0,2.362 -0.226,4.131 -0.676,5.302 -0.449,1.173 -1.246,2.109 -2.388,2.807 -1.141,0.697 -2.481,1.052 -4.022,1.052 -2.458,0 -4.579,-0.79 -6.365,-2.357 C 6.663,26.061 5.767,23.086 5.767,18.701 V 0 Z" /></g><g
           transform="translate(256.063,255.7842)"
           id="g50"><path
             id="path52"
             style="fill:#ffffff;fill-opacity:1;fill-rule:nonzero;stroke:none"
             d="m 0,0 -12.949,34.24 h 6.09 L 0.449,13.738 c 0.791,-2.22 1.517,-4.514 2.179,-6.902 0.514,1.809 1.227,3.979 2.147,6.515 l 7.562,20.889 h 5.931 L 5.384,0 Z" /></g><g
           transform="translate(283.7866,276.1924)"
           id="g54"><path
             id="path56"
             style="fill:#ffffff;fill-opacity:1;fill-rule:nonzero;stroke:none"
             d="M 0,0 H 19.006 C 18.75,2.881 18.024,5.042 16.825,6.481 14.986,8.718 12.608,9.834 9.681,9.834 7.033,9.834 4.802,8.94 2.996,7.157 1.191,5.376 0.19,2.993 0,0 m 18.941,-9.384 5.961,-0.74 c -0.94,-3.502 -2.682,-6.218 -5.224,-8.153 -2.544,-1.937 -5.792,-2.901 -9.743,-2.901 -4.979,0 -8.925,1.54 -11.84,4.629 -2.919,3.08 -4.378,7.406 -4.378,12.971 0,5.761 1.476,10.235 4.424,13.412 2.947,3.181 6.773,4.772 11.476,4.772 4.55,0 8.266,-1.556 11.152,-4.674 2.884,-3.118 4.326,-7.502 4.326,-13.155 0,-0.341 -0.009,-0.855 -0.03,-1.544 H -0.32 c 0.214,-3.763 1.275,-6.645 3.172,-8.638 1.901,-2.002 4.272,-3.007 7.116,-3.007 2.115,0 3.918,0.563 5.417,1.678 1.494,1.117 2.68,2.91 3.556,5.35" /></g><g
           transform="translate(315.8682,255.7842)"
           id="g58"><path
             id="path60"
             style="fill:#ffffff;fill-opacity:1;fill-rule:nonzero;stroke:none"
             d="m 0,0 v 34.24 h 5.193 v -5.186 c 1.325,2.427 2.55,4.026 3.668,4.799 1.123,0.777 2.359,1.162 3.705,1.162 1.944,0 3.918,-0.619 5.927,-1.866 l -1.986,-5.385 c -1.41,0.84 -2.819,1.258 -4.231,1.258 -1.259,0 -2.393,-0.387 -3.397,-1.146 C 7.875,27.11 7.158,26.054 6.731,24.698 6.092,22.636 5.769,20.377 5.769,17.929 V 0 Z" /></g><g
           transform="translate(341.5088,273.5215)"
           id="g62"><path
             id="path64"
             style="fill:#ffffff;fill-opacity:1;fill-rule:nonzero;stroke:none"
             d="m 0,0 c 0,-4.492 0.884,-7.773 2.658,-9.831 1.778,-2.07 3.996,-3.099 6.669,-3.099 2.649,0 4.871,1.025 6.667,3.08 1.795,2.047 2.692,5.268 2.692,9.653 0,4.195 -0.925,7.354 -2.772,9.482 -1.848,2.123 -4.075,3.189 -6.684,3.189 C 6.668,12.474 4.486,11.427 2.692,9.33 0.897,7.236 0,4.121 0,0 m -4.775,-20.57 5.608,-0.837 c 0.235,-1.748 0.889,-3.014 1.955,-3.806 1.432,-1.077 3.388,-1.613 5.865,-1.613 2.671,0 4.734,0.536 6.187,1.613 1.452,1.071 2.436,2.576 2.949,4.513 0.3,1.184 0.44,3.666 0.415,7.448 -2.519,-2.989 -5.661,-4.485 -9.422,-4.485 -4.678,0 -8.3,1.703 -10.865,5.097 -2.563,3.399 -3.848,7.463 -3.848,12.219 0,3.268 0.59,6.276 1.765,9.042 1.175,2.763 2.878,4.898 5.113,6.398 2.232,1.506 4.853,2.258 7.869,2.258 4.015,0 7.327,-1.632 9.934,-4.905 v 4.131 h 5.319 V -13.09 c 0,-5.336 -0.539,-9.11 -1.619,-11.335 -1.079,-2.225 -2.787,-3.986 -5.126,-5.274 -2.341,-1.283 -5.221,-1.932 -8.637,-1.932 -4.061,0 -7.34,0.923 -9.838,2.756 -2.501,1.838 -3.708,4.604 -3.624,8.305" /></g><path
           id="path66"
           style="fill:#ffffff;fill-opacity:1;fill-rule:nonzero;stroke:none"
           d="m 374.328,290.024 h 5.771 v -34.24 h -5.771 z m 0,13.03 h 5.771 v -6.673 h -5.771 z" /><g
           transform="translate(388.8789,255.7842)"
           id="g68"><path
             id="path70"
             style="fill:#ffffff;fill-opacity:1;fill-rule:nonzero;stroke:none"
             d="m 0,0 v 34.24 h 5.193 v -4.869 c 2.499,3.766 6.111,5.644 10.833,5.644 2.051,0 3.935,-0.372 5.657,-1.111 1.718,-0.743 3.006,-1.717 3.864,-2.921 0.851,-1.205 1.45,-2.634 1.793,-4.287 0.215,-1.079 0.319,-2.957 0.319,-5.639 V 0 h -5.767 v 20.829 c 0,2.362 -0.226,4.131 -0.675,5.302 -0.446,1.173 -1.243,2.109 -2.387,2.807 -1.143,0.697 -2.484,1.052 -4.022,1.052 -2.458,0 -4.579,-0.79 -6.363,-2.357 C 6.662,26.061 5.77,23.086 5.77,18.701 V 0 Z" /></g><g
           transform="translate(437.9824,260.9805)"
           id="g72"><path
             id="path74"
             style="fill:#ffffff;fill-opacity:1;fill-rule:nonzero;stroke:none"
             d="m 0,0 0.832,-5.128 c -1.624,-0.343 -3.078,-0.518 -4.359,-0.518 -2.095,0 -3.716,0.333 -4.87,1 -1.157,0.667 -1.966,1.544 -2.437,2.628 -0.471,1.084 -0.705,3.368 -0.705,6.851 v 19.7 h -4.231 v 4.511 h 4.231 v 8.476 l 5.737,3.484 V 29.044 H 0 V 24.533 H -5.802 V 4.511 c 0,-1.657 0.101,-2.716 0.305,-3.194 0.203,-0.472 0.532,-0.848 0.995,-1.126 0.459,-0.279 1.112,-0.42 1.968,-0.42 0.642,0 1.487,0.074 2.534,0.229" /></g><g
           transform="translate(473.3633,255.7842)"
           id="g76"><path
             id="path78"
             style="fill:#ffffff;fill-opacity:1;fill-rule:nonzero;stroke:none"
             d="M 0,0 V 41.687 H -15.479 V 47.27 H 21.762 V 41.687 H 6.218 V 0 Z" /></g><g
           transform="translate(497.8496,276.1924)"
           id="g80"><path
             id="path82"
             style="fill:#ffffff;fill-opacity:1;fill-rule:nonzero;stroke:none"
             d="M 0,0 H 19.007 C 18.751,2.881 18.025,5.042 16.825,6.481 14.988,8.718 12.607,9.834 9.679,9.834 7.032,9.834 4.805,8.94 2.997,7.157 1.191,5.376 0.191,2.993 0,0 m 18.942,-9.384 5.962,-0.74 c -0.941,-3.502 -2.681,-6.218 -5.225,-8.153 -2.544,-1.937 -5.792,-2.901 -9.743,-2.901 -4.979,0 -8.922,1.54 -11.841,4.629 -2.917,3.08 -4.375,7.406 -4.375,12.971 0,5.761 1.473,10.235 4.422,13.412 2.948,3.181 6.775,4.772 11.473,4.772 4.552,0 8.269,-1.556 11.152,-4.674 2.887,-3.118 4.331,-7.502 4.331,-13.155 0,-0.341 -0.011,-0.855 -0.034,-1.544 H -0.319 c 0.215,-3.763 1.274,-6.645 3.173,-8.638 1.9,-2.002 4.271,-3.007 7.116,-3.007 2.114,0 3.917,0.563 5.416,1.678 1.492,1.117 2.682,2.91 3.556,5.35" /></g><g
           transform="translate(552.207,268.3262)"
           id="g84"><path
             id="path86"
             style="fill:#ffffff;fill-opacity:1;fill-rule:nonzero;stroke:none"
             d="M 0,0 5.672,-0.74 C 5.053,-4.675 3.468,-7.751 0.914,-9.978 c -2.552,-2.221 -5.69,-3.334 -9.404,-3.334 -4.659,0 -8.405,1.527 -11.235,4.595 -2.833,3.059 -4.247,7.452 -4.247,13.172 0,3.693 0.611,6.927 1.826,9.699 1.216,2.777 3.07,4.851 5.562,6.238 2.484,1.389 5.2,2.081 8.125,2.081 3.693,0 6.721,-0.94 9.069,-2.818 2.349,-1.88 3.858,-4.557 4.52,-8.014 l -5.608,-0.868 c -0.541,2.295 -1.479,4.03 -2.837,5.187 -1.361,1.159 -2.998,1.74 -4.92,1.74 -2.904,0 -5.266,-1.044 -7.083,-3.143 -1.817,-2.099 -2.725,-5.41 -2.725,-9.947 0,-4.6 0.879,-7.938 2.626,-10.025 1.752,-2.086 4.04,-3.131 6.861,-3.131 2.264,0 4.154,0.703 5.673,2.1 C -1.367,-5.053 -0.403,-2.9 0,0" /></g><g
           transform="translate(562.8154,255.7842)"
           id="g88"><path
             id="path90"
             style="fill:#ffffff;fill-opacity:1;fill-rule:nonzero;stroke:none"
             d="M 0,0 V 47.27 H 5.771 V 30.308 c 2.692,3.139 6.09,4.707 10.191,4.707 2.519,0 4.711,-0.5 6.571,-1.502 1.86,-0.998 3.189,-2.378 3.988,-4.142 0.806,-1.764 1.203,-4.321 1.203,-7.67 V 0 h -5.768 v 21.701 c 0,2.901 -0.623,5.011 -1.873,6.337 -1.252,1.317 -3.022,1.978 -5.308,1.978 -1.71,0 -3.315,-0.445 -4.824,-1.336 C 8.447,27.788 7.373,26.576 6.731,25.05 6.092,23.522 5.771,21.422 5.771,18.729 V 0 Z" /></g><g
           transform="translate(599.3242,255.7842)"
           id="g92"><path
             id="path94"
             style="fill:#ffffff;fill-opacity:1;fill-rule:nonzero;stroke:none"
             d="m 0,0 v 34.24 h 5.19 v -4.869 c 2.502,3.766 6.111,5.644 10.835,5.644 2.049,0 3.937,-0.372 5.653,-1.111 1.724,-0.743 3.009,-1.717 3.864,-2.921 0.852,-1.205 1.455,-2.634 1.797,-4.287 0.212,-1.079 0.32,-2.957 0.32,-5.639 V 0 H 21.89 v 20.829 c 0,2.362 -0.23,4.131 -0.676,5.302 -0.446,1.173 -1.243,2.109 -2.387,2.807 -1.144,0.697 -2.486,1.052 -4.017,1.052 -2.464,0 -4.58,-0.79 -6.366,-2.357 C 6.658,26.061 5.767,23.086 5.767,18.701 V 0 Z" /></g><g
           transform="translate(639.6113,272.9053)"
           id="g96"><path
             id="path98"
             style="fill:#ffffff;fill-opacity:1;fill-rule:nonzero;stroke:none"
             d="m 0,0 c 0,-4.387 0.951,-7.666 2.847,-9.851 1.905,-2.177 4.297,-3.274 7.179,-3.274 2.865,0 5.247,1.102 7.148,3.29 1.905,2.196 2.855,5.535 2.855,10.03 0,4.234 -0.96,7.441 -2.869,9.623 C 15.246,12 12.872,13.09 10.026,13.09 7.144,13.09 4.752,12.005 2.847,9.834 0.951,7.663 0,4.384 0,0 m -5.931,0 c 0,6.339 1.747,11.034 5.251,14.09 2.932,2.538 6.499,3.804 10.706,3.804 4.684,0 8.508,-1.543 11.48,-4.63 2.969,-3.081 4.45,-7.342 4.45,-12.781 0,-4.402 -0.657,-7.872 -1.973,-10.394 -1.315,-2.525 -3.224,-4.486 -5.738,-5.881 -2.508,-1.4 -5.247,-2.099 -8.219,-2.099 -4.765,0 -8.611,1.532 -11.552,4.611 -2.937,3.074 -4.405,7.499 -4.405,13.28" /></g><path
           id="path100"
           style="fill:#ffffff;fill-opacity:1;fill-rule:nonzero;stroke:none"
           d="m 672.206,303.054 h 5.77 v -47.27 h -5.77 z" /><g
           transform="translate(690.6943,272.9053)"
           id="g102"><path
             id="path104"
             style="fill:#ffffff;fill-opacity:1;fill-rule:nonzero;stroke:none"
             d="m 0,0 c 0,-4.387 0.95,-7.666 2.855,-9.851 1.897,-2.177 4.292,-3.274 7.179,-3.274 2.861,0 5.247,1.102 7.144,3.29 1.905,2.196 2.855,5.535 2.855,10.03 0,4.234 -0.959,7.441 -2.869,9.623 C 15.255,12 12.872,13.09 10.034,13.09 7.147,13.09 4.752,12.005 2.855,9.834 0.95,7.663 0,4.384 0,0 m -5.927,0 c 0,6.339 1.747,11.034 5.251,14.09 2.933,2.538 6.499,3.804 10.71,3.804 4.676,0 8.504,-1.543 11.472,-4.63 2.968,-3.081 4.459,-7.342 4.459,-12.781 0,-4.402 -0.662,-7.872 -1.978,-10.394 -1.31,-2.525 -3.219,-4.486 -5.733,-5.881 -2.513,-1.4 -5.251,-2.099 -8.22,-2.099 -4.769,0 -8.615,1.532 -11.556,4.611 -2.937,3.074 -4.405,7.499 -4.405,13.28" /></g><g
           transform="translate(727.1396,273.5215)"
           id="g106"><path
             id="path108"
             style="fill:#ffffff;fill-opacity:1;fill-rule:nonzero;stroke:none"
             d="m 0,0 c 0,-4.492 0.888,-7.773 2.662,-9.831 1.77,-2.07 3.99,-3.099 6.665,-3.099 2.649,0 4.869,1.025 6.666,3.08 1.793,2.047 2.694,5.268 2.694,9.653 0,4.195 -0.928,7.354 -2.78,9.482 -1.842,2.123 -4.071,3.189 -6.678,3.189 C 6.666,12.474 4.485,11.427 2.688,9.33 0.896,7.236 0,4.121 0,0 m -4.778,-20.57 5.611,-0.837 c 0.234,-1.748 0.883,-3.014 1.955,-3.806 1.428,-1.077 3.387,-1.613 5.863,-1.613 2.671,0 4.735,0.536 6.185,1.613 1.454,1.071 2.436,2.576 2.95,4.513 0.297,1.184 0.441,3.666 0.418,7.448 -2.521,-2.989 -5.661,-4.485 -9.422,-4.485 -4.683,0 -8.304,1.703 -10.867,5.097 -2.563,3.399 -3.847,7.463 -3.847,12.219 0,3.268 0.586,6.276 1.766,9.042 1.171,2.763 2.878,4.898 5.111,6.398 2.23,1.506 4.856,2.258 7.865,2.258 4.017,0 7.328,-1.632 9.939,-4.905 v 4.131 h 5.319 V -13.09 c 0,-5.336 -0.536,-9.11 -1.617,-11.335 -1.076,-2.225 -2.792,-3.986 -5.13,-5.274 -2.342,-1.283 -5.219,-1.932 -8.637,-1.932 -4.059,0 -7.342,0.923 -9.841,2.756 -2.495,1.838 -3.707,4.604 -3.621,8.305" /></g><path
           id="path110"
           style="fill:#ffffff;fill-opacity:1;fill-rule:nonzero;stroke:none"
           d="m 759.95,290.024 h 5.773 v -34.24 h -5.773 z m 0,13.03 h 5.773 v -6.673 h -5.773 z" /><g
           transform="translate(778.8662,276.1924)"
           id="g112"><path
             id="path114"
             style="fill:#ffffff;fill-opacity:1;fill-rule:nonzero;stroke:none"
             d="M 0,0 H 19.011 C 18.75,2.881 18.024,5.042 16.826,6.481 14.989,8.718 12.606,9.834 9.679,9.834 7.035,9.834 4.801,8.94 2.995,7.157 1.193,5.376 0.189,2.993 0,0 m 18.943,-9.384 5.963,-0.74 c -0.945,-3.502 -2.684,-6.218 -5.224,-8.153 -2.544,-1.937 -5.792,-2.901 -9.746,-2.901 -4.982,0 -8.927,1.54 -11.841,4.629 -2.918,3.08 -4.373,7.406 -4.373,12.971 0,5.761 1.468,10.235 4.418,13.412 2.955,3.181 6.774,4.772 11.476,4.772 4.549,0 8.269,-1.556 11.152,-4.674 2.891,-3.118 4.328,-7.502 4.328,-13.155 0,-0.341 -0.014,-0.855 -0.033,-1.544 H -0.324 c 0.216,-3.763 1.274,-6.645 3.179,-8.638 1.897,-2.002 4.27,-3.007 7.108,-3.007 2.121,0 3.927,0.563 5.418,1.678 1.5,1.117 2.688,2.91 3.562,5.35" /></g><g
           transform="translate(808.7002,266.0068)"
           id="g116"><path
             id="path118"
             style="fill:#ffffff;fill-opacity:1;fill-rule:nonzero;stroke:none"
             d="m 0,0 5.706,0.903 c 0.324,-2.301 1.211,-4.062 2.675,-5.29 1.469,-1.226 3.509,-1.84 6.139,-1.84 2.648,0 4.617,0.545 5.895,1.633 1.284,1.088 1.924,2.361 1.924,3.822 0,1.31 -0.568,2.339 -1.698,3.091 C 19.848,2.836 17.885,3.491 14.745,4.288 10.512,5.36 7.579,6.29 5.949,7.071 4.314,7.857 3.071,8.949 2.229,10.335 c -0.847,1.382 -1.27,2.913 -1.27,4.589 0,1.526 0.352,2.945 1.045,4.24 0.693,1.302 1.64,2.385 2.837,3.241 0.896,0.668 2.122,1.232 3.671,1.696 1.545,0.462 3.207,0.691 4.981,0.691 2.671,0 5.018,-0.385 7.035,-1.162 2.023,-0.773 3.513,-1.824 4.472,-3.144 0.964,-1.322 1.622,-3.088 1.986,-5.3 l -5.638,-0.778 c -0.257,1.764 -1,3.137 -2.225,4.13 -1.234,0.986 -2.973,1.482 -5.216,1.482 -2.648,0 -4.54,-0.439 -5.67,-1.32 -1.126,-0.883 -1.693,-1.914 -1.693,-3.096 0,-0.752 0.229,-1.432 0.698,-2.032 0.473,-0.623 1.207,-1.138 2.211,-1.547 0.581,-0.217 2.279,-0.713 5.099,-1.481 4.085,-1.102 6.927,-1.995 8.539,-2.693 1.617,-0.697 2.883,-1.714 3.801,-3.047 0.915,-1.331 1.379,-2.991 1.379,-4.963 0,-1.938 -0.564,-3.754 -1.681,-5.466 -1.126,-1.707 -2.742,-3.034 -4.86,-3.967 -2.116,-0.936 -4.507,-1.4 -7.178,-1.4 -4.423,0 -7.792,0.923 -10.116,2.774 C 2.125,-6.37 0.644,-3.632 0,0" /></g><g
           transform="translate(896.3262,272.3555)"
           id="g120"><path
             id="path122"
             style="fill:#ffffff;fill-opacity:1;fill-rule:nonzero;stroke:none"
             d="m 0,0 6.221,-1.576 c -1.302,-5.135 -3.649,-9.056 -7.035,-11.751 -3.392,-2.694 -7.531,-4.05 -12.422,-4.05 -5.067,0 -9.179,1.036 -12.355,3.116 -3.17,2.073 -5.589,5.077 -7.242,9.012 -1.652,3.927 -2.485,8.154 -2.485,12.664 0,4.923 0.936,9.218 2.805,12.886 1.869,3.662 4.531,6.443 7.981,8.347 3.45,1.899 7.247,2.85 11.394,2.85 4.699,0 8.653,-1.201 11.86,-3.608 3.206,-2.408 5.435,-5.794 6.697,-10.154 l -6.121,-1.455 c -1.09,3.442 -2.671,5.948 -4.742,7.513 -2.073,1.574 -4.68,2.351 -7.824,2.351 -3.612,0 -6.629,-0.865 -9.048,-2.61 -2.428,-1.741 -4.134,-4.076 -5.117,-7.009 -0.981,-2.938 -1.472,-5.96 -1.472,-9.079 0,-4.015 0.581,-7.523 1.747,-10.521 1.162,-2.999 2.969,-5.242 5.431,-6.727 2.456,-1.476 5.118,-2.224 7.982,-2.224 3.481,0 6.427,1.013 8.846,3.031 C -2.485,-6.972 -0.851,-3.973 0,0" /></g><g
           transform="translate(913.248,272.9053)"
           id="g124"><path
             id="path126"
             style="fill:#ffffff;fill-opacity:1;fill-rule:nonzero;stroke:none"
             d="m 0,0 c 0,-4.387 0.945,-7.666 2.855,-9.851 1.896,-2.177 4.292,-3.274 7.179,-3.274 2.861,0 5.247,1.102 7.143,3.29 1.905,2.196 2.855,5.535 2.855,10.03 0,4.234 -0.959,7.441 -2.868,9.623 C 15.25,12 12.867,13.09 10.034,13.09 7.147,13.09 4.751,12.005 2.855,9.834 0.945,7.663 0,4.384 0,0 m -5.932,0 c 0,6.339 1.752,11.034 5.256,14.09 2.932,2.538 6.499,3.804 10.71,3.804 4.675,0 8.499,-1.543 11.472,-4.63 2.968,-3.081 4.454,-7.342 4.454,-12.781 0,-4.402 -0.658,-7.872 -1.973,-10.394 -1.31,-2.525 -3.229,-4.486 -5.738,-5.881 -2.509,-1.4 -5.251,-2.099 -8.215,-2.099 -4.764,0 -8.616,1.532 -11.556,4.611 -2.942,3.074 -4.41,7.499 -4.41,13.28" /></g><g
           transform="translate(945.9727,255.7842)"
           id="g128"><path
             id="path130"
             style="fill:#ffffff;fill-opacity:1;fill-rule:nonzero;stroke:none"
             d="m 0,0 v 34.24 h 5.161 v -4.802 c 1.068,1.676 2.486,3.023 4.261,4.045 1.774,1.018 3.792,1.532 6.057,1.532 2.523,0 4.585,-0.528 6.203,-1.581 1.612,-1.052 2.752,-2.525 3.414,-4.412 2.693,3.995 6.197,5.993 10.507,5.993 3.382,0 5.976,-0.94 7.796,-2.818 1.815,-1.88 2.725,-4.781 2.725,-8.694 V 0 h -5.742 v 21.57 c 0,2.323 -0.181,3.993 -0.559,5.009 -0.374,1.025 -1.054,1.851 -2.036,2.475 -0.986,0.621 -2.135,0.936 -3.463,0.936 -2.391,0 -4.378,-0.805 -5.959,-2.405 -1.581,-1.603 -2.374,-4.17 -2.374,-7.689 V 0 h -5.768 v 22.248 c 0,2.579 -0.469,4.513 -1.41,5.806 -0.942,1.288 -2.478,1.936 -4.613,1.936 -1.626,0 -3.125,-0.434 -4.504,-1.29 C 8.318,27.833 7.318,26.576 6.697,24.924 6.08,23.269 5.77,20.886 5.77,17.765 V 0 Z" /></g><g
           transform="translate(1005.874,272.7109)"
           id="g132"><path
             id="path134"
             style="fill:#ffffff;fill-opacity:1;fill-rule:nonzero;stroke:none"
             d="m 0,0 c 0,-4.404 0.887,-7.661 2.657,-9.769 1.775,-2.103 3.923,-3.162 6.445,-3.162 2.563,0 4.76,1.097 6.585,3.275 1.824,2.184 2.738,5.562 2.738,10.142 0,4.361 -0.887,7.628 -2.671,9.799 -1.788,2.171 -3.918,3.258 -6.396,3.258 -2.459,0 -4.633,-1.157 -6.525,-3.468 C 0.945,7.768 0,4.407 0,0 m -5.225,-30.046 v 47.359 h 5.256 v -4.45 c 1.239,1.745 2.635,3.049 4.202,3.918 1.559,0.869 3.451,1.307 5.666,1.307 2.905,0 5.472,-0.752 7.698,-2.259 2.219,-1.5 3.9,-3.628 5.03,-6.366 1.131,-2.738 1.698,-5.742 1.698,-9.008 0,-3.504 -0.626,-6.661 -1.874,-9.463 -1.252,-2.807 -3.067,-4.956 -5.449,-6.445 -2.383,-1.5 -4.892,-2.243 -7.513,-2.243 -1.927,0 -3.652,0.405 -5.179,1.22 -1.532,0.82 -2.779,1.851 -3.765,3.097 v -16.667 z" /></g><g
           transform="translate(1058.8799,272.9697)"
           id="g136"><path
             id="path138"
             style="fill:#ffffff;fill-opacity:1;fill-rule:nonzero;stroke:none"
             d="m 0,0 c -2.09,-0.855 -5.233,-1.59 -9.423,-2.19 -2.373,-0.35 -4.049,-0.733 -5.03,-1.163 -0.982,-0.427 -1.743,-1.06 -2.275,-1.889 -0.541,-0.822 -0.801,-1.74 -0.801,-2.749 0,-1.548 0.581,-2.836 1.747,-3.871 1.162,-1.034 2.869,-1.548 5.112,-1.548 2.221,0 4.197,0.487 5.927,1.467 1.729,0.974 3,2.316 3.81,4.01 C -0.312,-6.62 0,-4.688 0,-2.125 Z m 0.486,-12.959 c -2.139,-1.83 -4.202,-3.118 -6.174,-3.87 -1.978,-0.752 -4.094,-1.126 -6.365,-1.126 -3.738,0 -6.607,0.919 -8.62,2.756 -2.004,1.839 -3.014,4.185 -3.014,7.046 0,1.674 0.383,3.206 1.14,4.593 0.762,1.383 1.752,2.497 2.978,3.333 1.233,0.84 2.616,1.475 4.152,1.903 1.135,0.302 2.842,0.595 5.13,0.874 4.657,0.555 8.089,1.218 10.287,2 0.022,0.788 0.036,1.301 0.036,1.511 0,2.364 -0.545,4.026 -1.636,4.997 -1.476,1.312 -3.666,1.967 -6.571,1.967 -2.715,0 -4.715,-0.477 -6.012,-1.436 -1.293,-0.955 -2.248,-2.647 -2.869,-5.071 l -5.638,0.77 c 0.512,2.427 1.355,4.387 2.535,5.882 1.176,1.495 2.869,2.642 5.09,3.452 2.224,0.804 4.8,1.207 7.728,1.207 2.909,0 5.265,-0.34 7.08,-1.034 C 1.563,16.11 2.9,15.244 3.751,14.201 4.611,13.158 5.201,11.848 5.548,10.256 5.733,9.263 5.832,7.479 5.832,4.903 v -7.74 c 0,-5.392 0.126,-8.808 0.374,-10.232 0.238,-1.431 0.725,-2.801 1.455,-4.117 H 1.635 c -0.595,1.207 -0.978,2.615 -1.149,4.227" /></g><g
           transform="translate(1073.6611,255.7842)"
           id="g140"><path
             id="path142"
             style="fill:#ffffff;fill-opacity:1;fill-rule:nonzero;stroke:none"
             d="m 0,0 v 34.24 h 5.188 v -4.869 c 2.5,3.766 6.112,5.644 10.836,5.644 2.05,0 3.932,-0.372 5.658,-1.111 1.715,-0.743 3.004,-1.717 3.859,-2.921 0.86,-1.205 1.45,-2.634 1.798,-4.287 0.211,-1.079 0.314,-2.957 0.314,-5.639 V 0 h -5.764 v 20.829 c 0,2.362 -0.221,4.131 -0.68,5.302 -0.446,1.173 -1.243,2.109 -2.388,2.807 -1.134,0.697 -2.476,1.052 -4.017,1.052 -2.459,0 -4.575,-0.79 -6.36,-2.357 C 6.657,26.061 5.765,23.086 5.765,18.701 V 0 Z" /></g><g
           transform="translate(1109.9033,242.6016)"
           id="g144"><path
             id="path146"
             style="fill:#ffffff;fill-opacity:1;fill-rule:nonzero;stroke:none"
             d="M 0,0 -0.64,5.445 C 0.622,5.107 1.721,4.932 2.657,4.932 c 1.284,0 2.311,0.212 3.081,0.644 0.766,0.428 1.401,1.031 1.892,1.806 0.365,0.581 0.95,2.017 1.761,4.319 0.103,0.324 0.279,0.793 0.508,1.424 L -3.013,47.423 h 6.215 l 7.085,-19.831 c 0.919,-2.511 1.738,-5.156 2.473,-7.927 0.662,2.666 1.445,5.268 2.364,7.806 l 7.278,19.952 h 5.77 L 15.224,12.602 C 13.836,8.846 12.76,6.256 11.98,4.838 10.963,2.923 9.782,1.522 8.463,0.626 7.139,-0.266 5.558,-0.711 3.716,-0.711 2.608,-0.711 1.369,-0.478 0,0" /></g><g
           transform="translate(628.6855,506.917)"
           id="g148"><path
             id="path150"
             style="fill:#ffffff;fill-opacity:1;fill-rule:nonzero;stroke:none"
             d="m 0,0 15.768,0.834 c 0.239,-5.117 1.099,-8.588 2.612,-10.364 2.433,-2.933 6.909,-4.397 13.503,-4.397 5.431,0 9.354,1.002 11.808,2.98 2.447,1.988 3.649,4.385 3.649,7.197 0,2.425 -1.014,4.489 -2.986,6.187 -1.406,1.221 -5.243,3.229 -11.535,6.008 -6.283,2.767 -10.89,5.065 -13.758,6.94 -2.897,1.844 -5.153,4.248 -6.833,7.205 -1.671,2.96 -2.473,6.43 -2.473,10.397 0,6.933 2.446,12.676 7.346,17.249 4.905,4.576 12.047,6.858 21.335,6.858 9.48,0 16.794,-2.261 21.96,-6.778 5.203,-4.53 8.04,-10.527 8.584,-18.017 L 53.168,31.568 c -0.405,3.912 -1.802,6.917 -4.197,9.003 -2.388,2.097 -5.937,3.149 -10.617,3.149 -4.616,0 -7.895,-0.806 -9.863,-2.477 -1.981,-1.639 -2.976,-3.732 -2.976,-6.222 0,-2.378 0.918,-4.33 2.688,-5.863 1.797,-1.573 5.778,-3.722 11.94,-6.461 9.259,-4.077 15.16,-7.398 17.7,-9.957 3.765,-3.743 5.657,-8.575 5.657,-14.453 0,-7.279 -2.797,-13.489 -8.413,-18.651 -5.635,-5.157 -13.427,-7.725 -23.47,-7.725 -6.945,0 -12.922,1.192 -17.979,3.576 C 8.566,-22.135 5.004,-18.82 2.945,-14.61 0.828,-10.384 -0.145,-5.507 0,0" /></g><g
           transform="translate(751.0371,514.9351)"
           id="g152"><path
             id="path154"
             style="fill:#ffffff;fill-opacity:1;fill-rule:nonzero;stroke:none"
             d="m 0,0 c 0.04,0.717 0.059,1.234 0.059,1.621 0,4.381 -0.955,7.661 -2.897,9.852 -1.9,2.198 -4.449,3.282 -7.674,3.282 -3.198,0 -6.112,-1.234 -8.643,-3.714 C -21.699,8.538 -23.447,4.861 -24.334,0 Z m 13.3,-9.778 h -39.211 c -0.031,-0.627 -0.049,-1.113 -0.049,-1.47 0,-3.97 1.09,-7.181 3.292,-9.615 2.207,-2.45 4.851,-3.674 8.008,-3.674 5.18,0 9.215,2.799 12.138,8.386 l 14.011,-2.411 C 8.765,-24.41 5.111,-28.803 0.549,-31.713 c -4.558,-2.935 -9.678,-4.394 -15.349,-4.394 -7.801,0 -14.115,2.543 -19.002,7.604 -4.85,5.077 -7.292,11.781 -7.292,20.146 0,8.141 2.203,15.426 6.594,21.769 6.022,8.624 14.593,12.933 25.727,12.933 7.071,0 12.718,-2.283 16.898,-6.752 4.197,-4.516 6.292,-10.801 6.292,-18.908 0,-3.872 -0.365,-7.352 -1.117,-10.463" /></g><g
           transform="translate(820.1396,502.5596)"
           id="g156"><path
             id="path158"
             style="fill:#ffffff;fill-opacity:1;fill-rule:nonzero;stroke:none"
             d="M 0,0 15.196,-2.501 C 12.665,-9.437 8.972,-14.703 4.054,-18.316 c -4.937,-3.605 -10.653,-5.416 -17.138,-5.416 -7.395,0 -13.264,2.272 -17.61,6.8 -4.328,4.517 -6.503,10.746 -6.503,18.719 0,6.453 1.315,12.59 3.94,18.337 2.609,5.762 6.58,10.298 11.855,13.602 5.287,3.322 11.092,4.995 17.421,4.995 6.859,0 12.308,-1.867 16.384,-5.603 4.099,-3.728 6.368,-8.624 6.896,-14.706 L 4.49,16.762 c -0.378,3.362 -1.36,5.812 -2.977,7.399 -1.644,1.578 -3.751,2.379 -6.418,2.379 -3.049,0 -5.868,-1.155 -8.521,-3.475 -2.635,-2.295 -4.666,-5.757 -6.08,-10.357 -1.379,-4.589 -2.103,-8.887 -2.103,-12.919 0,-3.506 0.841,-6.213 2.508,-8.101 1.689,-1.898 3.797,-2.836 6.328,-2.836 2.522,0 4.955,0.919 7.274,2.777 C -3.148,-6.492 -1.319,-3.717 0,0" /></g><g
           transform="translate(863.1328,539.8691)"
           id="g160"><path
             id="path162"
             style="fill:#ffffff;fill-opacity:1;fill-rule:nonzero;stroke:none"
             d="M 0,0 H 15.903 L 8.147,-35.291 c -0.905,-4.211 -1.414,-6.853 -1.414,-7.885 0,-1.728 0.578,-3.21 1.681,-4.445 1.099,-1.234 2.544,-1.85 4.256,-1.85 1.221,0 2.454,0.288 3.648,0.84 1.198,0.549 2.441,1.415 3.711,2.538 1.266,1.141 2.406,2.447 3.418,3.904 1.005,1.461 1.937,3.392 2.861,5.775 0.603,1.776 1.341,4.415 2.171,7.933 L 34.657,0 H 50.385 L 37.256,-59.645 H 22.564 l 1.582,7.88 c -5.914,-6.176 -12.35,-9.277 -19.291,-9.277 -4.404,0 -7.849,1.397 -10.39,4.222 -2.504,2.802 -3.765,6.54 -3.765,11.26 0,2.057 0.654,6.165 1.968,12.3 z" /></g><g
           transform="translate(933.8301,539.8691)"
           id="g164"><path
             id="path166"
             style="fill:#ffffff;fill-opacity:1;fill-rule:nonzero;stroke:none"
             d="m 0,0 h 14.696 l -2.338,-11.583 c 5.446,8.666 11.382,12.994 17.714,12.994 2.283,0 4.702,-0.6 7.296,-1.752 l -6.035,-13.21 c -1.45,0.536 -2.972,0.786 -4.566,0.786 -2.725,0 -5.454,-1.035 -8.283,-3.144 -2.793,-2.098 -4.963,-4.892 -6.545,-8.396 -1.548,-3.483 -3.129,-9.037 -4.674,-16.61 l -3.658,-18.73 h -15.75 z" /></g><g
           transform="translate(994.7129,562.6138)"
           id="g168"><path
             id="path170"
             style="fill:#ffffff;fill-opacity:1;fill-rule:nonzero;stroke:none"
             d="M 0,0 H 15.719 L 12.765,-14.555 H -2.959 Z M -4.611,-22.745 H 11.098 L -1.026,-82.389 h -15.697 z" /></g><g
           transform="translate(1023.2539,527.6909)"
           id="g172"><path
             id="path174"
             style="fill:#ffffff;fill-opacity:1;fill-rule:nonzero;stroke:none"
             d="m 0,0 2.36,12.178 h 7.882 l 1.932,9.379 17.84,11.169 -4.094,-20.548 h 9.553 L 33.126,0 H 23.47 l -5.161,-24.806 c -0.893,-4.526 -1.347,-7.098 -1.347,-7.755 0,-1.216 0.387,-2.199 1.14,-2.887 0.76,-0.699 2.161,-1.038 4.174,-1.038 0.703,0 2.418,0.139 5.22,0.388 l -2.554,-11.92 c -2.693,-0.544 -5.454,-0.845 -8.292,-0.845 -5.525,0 -9.561,1.104 -12.096,3.282 -2.495,2.192 -3.757,5.221 -3.757,9.115 0,1.828 0.694,6.055 2.05,12.657 L 7.891,0 Z" /></g><g
           transform="translate(1077.7734,539.8691)"
           id="g176"><path
             id="path178"
             style="fill:#ffffff;fill-opacity:1;fill-rule:nonzero;stroke:none"
             d="m 0,0 h 15.65 l 3.833,-29.766 c 0.928,-7.618 1.496,-12.997 1.744,-16.111 2.098,6.131 4.959,12.594 8.502,19.391 L 43.408,0 h 16.633 l -35.5,-65.433 c -2.995,-5.414 -5.337,-9.226 -7.039,-11.383 -1.693,-2.165 -3.738,-3.875 -6.161,-5.109 -2.388,-1.248 -5.316,-1.843 -8.648,-1.843 -3.355,0 -7.08,0.586 -11.278,1.795 l 1.347,11.999 c 1.879,-0.555 3.734,-0.84 5.517,-0.84 4.784,0 8.738,3.733 11.823,11.169 z" /></g><g
           transform="translate(628.6855,382.5078)"
           id="g180"><path
             id="path182"
             style="fill:#ffffff;fill-opacity:1;fill-rule:nonzero;stroke:none"
             d="m 0,0 15.768,0.841 c 0.239,-5.133 1.099,-8.592 2.612,-10.373 2.433,-2.923 6.909,-4.391 13.503,-4.391 5.431,0 9.354,0.988 11.808,2.984 2.447,1.997 3.649,4.366 3.649,7.202 0,2.429 -1.014,4.473 -2.986,6.159 -1.406,1.24 -5.243,3.259 -11.535,6.021 -6.283,2.781 -10.89,5.09 -13.758,6.944 -2.897,1.855 -5.153,4.247 -6.833,7.213 -1.671,2.954 -2.473,6.41 -2.473,10.393 0,6.941 2.446,12.688 7.346,17.248 4.905,4.58 12.047,6.849 21.335,6.849 9.48,0 16.794,-2.249 21.96,-6.775 5.203,-4.509 8.04,-10.514 8.584,-18.025 L 53.168,31.562 c -0.405,3.935 -1.802,6.933 -4.197,9.015 -2.388,2.109 -5.937,3.157 -10.617,3.157 -4.616,0 -7.895,-0.833 -9.863,-2.485 -1.981,-1.629 -2.976,-3.728 -2.976,-6.228 0,-2.379 0.918,-4.321 2.688,-5.846 1.797,-1.592 5.778,-3.746 11.94,-6.487 9.259,-4.072 15.16,-7.4 17.7,-9.936 3.765,-3.76 5.657,-8.573 5.657,-14.463 0,-7.271 -2.797,-13.482 -8.413,-18.642 -5.635,-5.157 -13.427,-7.726 -23.47,-7.726 -6.918,0 -12.922,1.176 -17.979,3.556 -5.072,2.401 -8.634,5.695 -10.693,9.911 C 0.828,-10.356 -0.145,-5.496 0,0" /></g><g
           transform="translate(748.29,392.0557)"
           id="g184"><path
             id="path186"
             style="fill:#ffffff;fill-opacity:1;fill-rule:nonzero;stroke:none"
             d="m 0,0 c 0,3.807 -1.086,6.882 -3.266,9.178 -2.184,2.305 -4.99,3.474 -8.458,3.474 -3.419,0 -6.472,-1.075 -9.111,-3.243 -2.635,-2.163 -4.721,-5.287 -6.152,-9.391 -1.483,-4.095 -2.194,-7.901 -2.194,-11.34 0,-4.251 1.118,-7.655 3.405,-10.176 2.279,-2.502 5.143,-3.75 8.588,-3.75 4.347,0 7.968,1.878 10.922,5.664 C -2.09,-14.218 0,-7.696 0,0 m -44.782,-11.452 c 0,11.025 3.031,19.838 9.102,26.408 6.062,6.572 14.066,9.863 23.965,9.863 8.575,0 15.264,-2.443 20.078,-7.275 4.81,-4.858 7.242,-11.366 7.242,-19.565 0,-9.664 -3.036,-18.013 -9.035,-25.053 -6.039,-7.042 -14.105,-10.553 -24.212,-10.553 -5.472,0 -10.332,1.119 -14.547,3.371 -4.248,2.233 -7.391,5.421 -9.467,9.539 -2.099,4.133 -3.126,8.544 -3.126,13.265" /></g><g
           transform="translate(769.6826,355.8232)"
           id="g188"><path
             id="path190"
             style="fill:#ffffff;fill-opacity:1;fill-rule:nonzero;stroke:none"
             d="M 0,0 16.736,82.398 H 32.428 L 15.724,0 Z" /></g><g
           transform="translate(810.7764,415.4717)"
           id="g192"><path
             id="path194"
             style="fill:#ffffff;fill-opacity:1;fill-rule:nonzero;stroke:none"
             d="M 0,0 H 15.912 L 8.179,-35.287 c -0.955,-4.238 -1.406,-6.853 -1.406,-7.896 0,-1.731 0.523,-3.211 1.635,-4.443 1.113,-1.229 2.518,-1.847 4.266,-1.847 1.238,0 2.445,0.286 3.643,0.847 1.211,0.552 2.446,1.401 3.729,2.541 1.257,1.123 2.383,2.425 3.414,3.889 1.005,1.47 1.955,3.373 2.824,5.783 0.621,1.771 1.342,4.416 2.211,7.928 L 34.68,0 H 50.384 L 37.26,-59.648 H 22.555 l 1.603,7.87 c -5.945,-6.173 -12.345,-9.265 -19.299,-9.265 -4.414,0 -7.873,1.395 -10.372,4.191 -2.545,2.82 -3.805,6.576 -3.805,11.266 0,2.074 0.693,6.18 2.008,12.322 z" /></g><g
           transform="translate(871.2539,403.2939)"
           id="g196"><path
             id="path198"
             style="fill:#ffffff;fill-opacity:1;fill-rule:nonzero;stroke:none"
             d="m 0,0 2.347,12.178 h 7.913 l 1.886,9.376 17.894,11.164 -4.147,-20.54 h 9.579 L 33.126,0 h -9.675 l -5.143,-24.825 c -0.896,-4.521 -1.342,-7.09 -1.342,-7.736 0,-1.232 0.378,-2.213 1.157,-2.896 0.743,-0.689 2.14,-1.029 4.14,-1.029 0.733,0 2.436,0.131 5.206,0.379 l -2.49,-11.915 c -2.726,-0.559 -5.491,-0.843 -8.342,-0.843 -5.513,0 -9.566,1.096 -12.074,3.279 -2.518,2.202 -3.766,5.206 -3.766,9.127 0,1.813 0.703,6.044 2.076,12.655 L 7.899,0 Z" /></g><g
           transform="translate(926.8848,438.2217)"
           id="g200"><path
             id="path202"
             style="fill:#ffffff;fill-opacity:1;fill-rule:nonzero;stroke:none"
             d="M 0,0 H 15.71 L 12.769,-14.564 H -2.959 Z m -4.616,-22.75 h 15.691 l -12.07,-59.648 h -15.732 z" /></g><g
           transform="translate(988.4795,392.0557)"
           id="g204"><path
             id="path206"
             style="fill:#ffffff;fill-opacity:1;fill-rule:nonzero;stroke:none"
             d="m 0,0 c 0,3.807 -1.09,6.882 -3.297,9.178 -2.166,2.305 -5.013,3.474 -8.458,3.474 -3.423,0 -6.454,-1.075 -9.106,-3.243 -2.621,-2.163 -4.689,-5.287 -6.166,-9.391 -1.464,-4.095 -2.185,-7.901 -2.185,-11.34 0,-4.251 1.117,-7.655 3.4,-10.176 2.289,-2.502 5.153,-3.75 8.603,-3.75 4.319,0 7.968,1.878 10.904,5.664 C -2.099,-14.218 0,-7.696 0,0 m -44.809,-11.452 c 0,11.025 3.037,19.838 9.121,26.408 6.057,6.572 14.052,9.863 23.956,9.863 8.557,0 15.254,-2.443 20.074,-7.275 4.823,-4.858 7.22,-11.366 7.22,-19.565 0,-9.664 -3.005,-18.013 -9.013,-25.053 -6.049,-7.042 -14.093,-10.553 -24.222,-10.553 -5.454,0 -10.305,1.119 -14.56,3.371 -4.225,2.233 -7.401,5.421 -9.468,9.539 -2.071,4.133 -3.108,8.544 -3.108,13.265" /></g><g
           transform="translate(1021.502,415.4717)"
           id="g208"><path
             id="path210"
             style="fill:#ffffff;fill-opacity:1;fill-rule:nonzero;stroke:none"
             d="m 0,0 h 15.097 l -1.491,-7.85 c 3.739,3.329 7.265,5.708 10.517,7.106 3.27,1.422 6.711,2.147 10.318,2.147 4.832,0 8.657,-1.429 11.417,-4.24 2.797,-2.853 4.216,-6.619 4.216,-11.298 -0.027,-2.119 -0.694,-6.042 -1.986,-11.86 L 40.999,-59.648 H 25.294 l 7.061,33.778 c 1.009,5.054 1.559,8.06 1.654,9.031 0,2.074 -0.617,3.701 -1.824,4.872 -1.189,1.203 -2.873,1.8 -5.008,1.8 -2.347,0 -4.937,-0.986 -7.783,-2.971 -2.865,-1.986 -5.081,-4.589 -6.72,-7.849 -1.243,-2.321 -2.621,-7.033 -4.153,-14.165 L 3.594,-59.648 h -15.723 z" /></g><g
           transform="translate(1078.3545,372.5273)"
           id="g212"><path
             id="path214"
             style="fill:#ffffff;fill-opacity:1;fill-rule:nonzero;stroke:none"
             d="m 0,0 15.191,2.45 c 1.347,-3.271 3.031,-5.58 5.089,-6.951 2.009,-1.347 4.78,-2.027 8.301,-2.027 3.616,0 6.504,0.824 8.684,2.45 1.522,1.122 2.279,2.469 2.279,4.078 0,1.059 -0.393,2.029 -1.172,2.895 -0.824,0.826 -2.981,1.843 -6.561,3.04 -9.536,3.219 -15.44,5.753 -17.709,7.655 -3.559,2.898 -5.351,6.702 -5.351,11.449 0,4.72 1.729,8.773 5.188,12.17 4.765,4.76 11.913,7.139 21.339,7.139 7.481,0 13.169,-1.419 16.997,-4.216 3.878,-2.803 6.297,-6.611 7.32,-11.405 L 44.988,26.193 c -0.769,2.147 -2.009,3.745 -3.716,4.819 -2.35,1.437 -5.156,2.169 -8.444,2.169 -3.31,0 -5.67,-0.579 -7.107,-1.681 -1.427,-1.114 -2.158,-2.396 -2.158,-3.845 0,-1.488 0.744,-2.73 2.185,-3.701 0.914,-0.605 3.86,-1.641 8.841,-3.134 7.68,-2.293 12.836,-4.547 15.431,-6.737 3.643,-3.122 5.503,-6.843 5.503,-11.241 0,-5.655 -2.333,-10.552 -7.008,-14.698 -4.625,-4.157 -11.178,-6.243 -19.66,-6.243 -8.403,0 -14.898,1.579 -19.501,4.766 C 4.756,-10.196 1.621,-5.74 0,0" /></g></g></g></g></svg>