<?xml version="1.0" standalone="no"?><!DOCTYPE svg PUBLIC "-//W3C//DTD SVG 1.1//EN" "http://www.w3.org/Graphics/SVG/1.1/DTD/svg11.dtd"><svg t="1600656405641" class="icon" viewBox="0 0 1024 1024" version="1.1" xmlns="http://www.w3.org/2000/svg" p-id="2707" xmlns:xlink="http://www.w3.org/1999/xlink" width="200" height="200"><defs><style type="text/css"></style></defs><path d="M448.1 896.2H193V127.9h639.2v320.2h64V95.9c0-17.7-14.3-32-32-32H161c-17.7 0-32 14.3-32 32v832.4c0 17.7 14.3 32 32 32h703.2c2.2 0 4.4-0.2 6.5-0.7H448.1v-63.4zM255.3 415.9h448v-64.2h-448v64.2z m512.8-224.1H256V256h512.1v-64.2z m-48.7 496.4V568.5h-32.1v151.8h163.9v-32.1H719.4z m-8.8-240.1c-140.8 0-254.9 114.1-254.9 254.9s114.1 254.9 254.9 254.9S965.5 843.7 965.5 703 851.4 448.1 710.6 448.1z m137.8 392.6c-36.8 36.8-85.7 57.1-137.8 57.1s-101-20.3-137.8-57.1-57-85.7-57-137.7 20.3-101 57.1-137.8 85.7-57.1 137.8-57.1 101 20.3 137.8 57.1 57.1 85.7 57.1 137.8-20.4 100.9-57.2 137.7z" p-id="2708"></path></svg>