<?xml version="1.0" standalone="no"?><!DOCTYPE svg PUBLIC "-//W3C//DTD SVG 1.1//EN" "http://www.w3.org/Graphics/SVG/1.1/DTD/svg11.dtd"><svg t="1627288760118" class="icon" viewBox="0 0 1024 1024" version="1.1" xmlns="http://www.w3.org/2000/svg" p-id="3334" xmlns:xlink="http://www.w3.org/1999/xlink" width="32" height="32"><defs><style type="text/css">@font-face { font-family: feedback-iconfont; src: url("//at.alicdn.com/t/font_1031158_1uhr8ri0pk5.eot?#iefix") format("embedded-opentype"), url("//at.alicdn.com/t/font_1031158_1uhr8ri0pk5.woff2") format("woff2"), url("//at.alicdn.com/t/font_1031158_1uhr8ri0pk5.woff") format("woff"), url("//at.alicdn.com/t/font_1031158_1uhr8ri0pk5.ttf") format("truetype"), url("//at.alicdn.com/t/font_1031158_1uhr8ri0pk5.svg#iconfont") format("svg"); }
</style></defs><path d="M795.428571 64h-585.142857c-91.428571 0-164.571429 73.142857-164.571428 164.571429v585.142857c0 91.428571 73.142857 164.571429 164.571428 164.571428h585.142857c91.428571 0 164.571429-73.142857 164.571429-164.571428v-585.142857c0-91.428571-73.142857-164.571429-164.571429-164.571429z m109.714286 749.714286c0 60.342857-49.371429 109.714286-109.714286 109.714285h-585.142857c-60.342857 0-109.714286-49.371429-109.714285-109.714285v-585.142857c0-60.342857 49.371429-109.714286 109.714285-109.714286h585.142857c60.342857 0 109.714286 49.371429 109.714286 109.714286v585.142857z" p-id="3335"></path><path d="M738.742857 491.885714H539.428571V283.428571c0-14.628571-12.8-27.428571-27.428571-27.428571s-27.428571 12.8-27.428571 27.428571v208.457143H279.771429c-14.628571 0-27.428571 12.8-27.428572 27.428572s12.8 27.428571 27.428572 27.428571h204.8v212.114286c0 14.628571 12.8 27.428571 27.428571 27.428571s27.428571-12.8 27.428571-27.428571V546.742857h199.314286c14.628571 0 27.428571-12.8 27.428572-27.428571s-12.8-27.428571-27.428572-27.428572z" p-id="3336"></path></svg>