<?xml version="1.0" standalone="no"?><!DOCTYPE svg PUBLIC "-//W3C//DTD SVG 1.1//EN" "http://www.w3.org/Graphics/SVG/1.1/DTD/svg11.dtd"><svg t="1628659327867" class="icon" viewBox="0 0 1024 1024" version="1.1" xmlns="http://www.w3.org/2000/svg" p-id="11252" xmlns:xlink="http://www.w3.org/1999/xlink" width="32" height="32"><defs><style type="text/css">@font-face { font-family: feedback-iconfont; src: url("//at.alicdn.com/t/font_1031158_1uhr8ri0pk5.eot?#iefix") format("embedded-opentype"), url("//at.alicdn.com/t/font_1031158_1uhr8ri0pk5.woff2") format("woff2"), url("//at.alicdn.com/t/font_1031158_1uhr8ri0pk5.woff") format("woff"), url("//at.alicdn.com/t/font_1031158_1uhr8ri0pk5.ttf") format("truetype"), url("//at.alicdn.com/t/font_1031158_1uhr8ri0pk5.svg#iconfont") format("svg"); }
</style></defs><path d="M341.333 864.427H142.72a40.96 40.96 0 0 1-40.747-40.747V157.867a40.96 40.96 0 0 1 40.747-40.747h509.227a40.96 40.96 0 0 1 40.746 40.747V355.84a31.36 31.36 0 0 0 62.507 0V149.333a94.293 94.293 0 0 0-93.867-94.72H133.76a94.293 94.293 0 0 0-94.293 94.72V832a94.507 94.507 0 0 0 94.293 94.293h207.573a31.36 31.36 0 1 0 0-62.506z" p-id="11253"></path><path d="M208.427 378.667a31.147 31.147 0 1 0 0 62.293H538.24a31.147 31.147 0 1 0 0-62.293z m416-130.774a31.36 31.36 0 0 0-31.147-31.36h-384a31.36 31.36 0 1 0 0 62.507h384a31.147 31.147 0 0 0 31.147-31.147zM376.32 540.373H208.427a31.36 31.36 0 0 0 0 62.72H376.32a31.36 31.36 0 0 0 0-62.72zM722.773 448A240.427 240.427 0 1 0 963.2 687.573 240.64 240.64 0 0 0 722.773 448z m0 417.067a176.853 176.853 0 1 1 176.854-176.64 177.067 177.067 0 0 1-176.854 175.786z" p-id="11254"></path><path d="M824.747 615.04a29.867 29.867 0 0 0-29.867-29.867 30.507 30.507 0 0 0-21.333 8.747l-51.2 51.413-51.2-51.413a30.507 30.507 0 0 0-21.334-8.747 29.867 29.867 0 0 0-29.866 29.867 28.8 28.8 0 0 0 8.746 21.333l51.2 51.414-49.066 48.853a30.08 30.08 0 0 0 0 42.667 29.44 29.44 0 0 0 21.333 8.746 28.8 28.8 0 0 0 21.333-8.746l49.067-48.854 49.067 48.854a28.8 28.8 0 0 0 21.333 8.746 29.867 29.867 0 0 0 29.867-29.866 30.507 30.507 0 0 0-8.747-21.334L765.013 688l51.2-51.413a28.8 28.8 0 0 0 8.534-21.547z" p-id="11255"></path></svg>