<?xml version="1.0" standalone="no"?><!DOCTYPE svg PUBLIC "-//W3C//DTD SVG 1.1//EN" "http://www.w3.org/Graphics/SVG/1.1/DTD/svg11.dtd"><svg t="1628659392101" class="icon" viewBox="0 0 1024 1024" version="1.1" xmlns="http://www.w3.org/2000/svg" p-id="14795" xmlns:xlink="http://www.w3.org/1999/xlink" width="32" height="32"><defs><style type="text/css">@font-face { font-family: feedback-iconfont; src: url("//at.alicdn.com/t/font_1031158_1uhr8ri0pk5.eot?#iefix") format("embedded-opentype"), url("//at.alicdn.com/t/font_1031158_1uhr8ri0pk5.woff2") format("woff2"), url("//at.alicdn.com/t/font_1031158_1uhr8ri0pk5.woff") format("woff"), url("//at.alicdn.com/t/font_1031158_1uhr8ri0pk5.ttf") format("truetype"), url("//at.alicdn.com/t/font_1031158_1uhr8ri0pk5.svg#iconfont") format("svg"); }
</style></defs><path d="M616.067952 817.603677c-7.060658 1.739582-14.325972 3.376836-21.488958 4.707105-18.726092 3.479165-31.210153 25.786749-27.730988 44.615169 1.739582 9.209553 6.958329 16.986509 14.121315 22.0006 7.367643 5.218747 16.679524 7.469971 26.196063 5.730389 8.595583-1.637254 17.191166-3.479165 25.582093-5.525732 18.521435-4.604777 29.777556-23.433197 25.172779-41.954632C653.417808 828.552813 634.691716 812.998901 616.067952 817.603677L616.067952 817.603677 616.067952 817.603677zM871.888878 362.447087c2.455881 7.265314 7.060658 13.302688 12.893375 17.395823 8.697911 6.139702 19.954032 3.888478 30.800839 0.306985 18.112122-6.037374 27.935645-25.582093 22.0006-43.694214-2.762866-8.288598-5.730389-16.577196-9.004897-24.661137-7.060658-17.702808-27.219346-26.400719-44.922154-19.237734-17.702808 7.060658-30.698511 27.219346-23.535525 44.922154C862.781653 344.334966 869.637654 355.591086 871.888878 362.447087L871.888878 362.447087 871.888878 362.447087zM728.526831 768.179075c-6.139702 3.990806-12.381733 7.879285-18.726092 11.563106-16.577196 9.516538-22.205256 34.996303-12.688718 51.573499 2.558209 4.502448 6.037374 8.18627 10.02818 10.949136 10.64215 7.469971 25.172779 8.595583 37.247527 1.637254 7.572299-4.40012 15.04227-9.004897 22.307585-13.81433 15.963226-10.539822 20.363346-32.02878 9.823524-47.889677C765.876686 766.337164 744.490057 757.639253 728.526831 768.179075L728.526831 768.179075 728.526831 768.179075zM959.072649 454.849605c-0.716299-19.135405-16.884181-33.973019-35.917258-33.25672-19.033077 0.716299-33.973019 16.884181-33.154392 35.917258 0.306985 7.265314 0.409313 14.735285 0.204657 22.0006-0.306985 11.972419 5.62806 22.61457 14.735285 29.061257 5.423404 3.78615 11.972419 6.139702 19.135405 6.344359 19.135405 0.409313 34.893974-14.735285 35.303288-33.870691C959.481963 472.347757 959.481963 463.547517 959.072649 454.849605L959.072649 454.849605 959.072649 454.849605zM866.260817 681.506945c-15.349256-11.460777-36.940542-12.688718-48.401319 2.660538-4.40012 5.832717-9.004897 11.665434-13.712002 17.191166-12.381733 14.530629-10.64215 40.624363 3.888478 53.006096 0.818627 0.716299 1.637254 1.330269 2.558209 1.944239 14.4283 10.232837 34.586989 7.879285 46.252423-5.832717 5.62806-6.651344 11.153792-13.507345 16.372539-20.568002C884.679924 714.661337 881.507745 692.967723 866.260817 681.506945L866.260817 681.506945 866.260817 681.506945zM917.118017 556.461677c-18.21445-5.730389-41.954632 4.40012-47.68502 22.61457-2.148896 6.958329-4.604777 13.916658-7.265314 20.772659-5.730389 15.04227 4.093135 31.721795 16.679524 40.624363 2.353553 1.637254 4.809433 2.967523 7.674628 4.093135 17.805136 6.856001 37.861497-2.148896 44.615169-19.954032 3.069851-8.18627 6.037374-16.474868 8.595583-24.763466C945.462976 581.532128 935.332467 562.192066 917.118017 556.461677L917.118017 556.461677 917.118017 556.461677zM473.72919 818.319976c-26.605376-6.958329-69.173978-23.535525-97.31428-36.735885-0.306985-0.204657-0.61397-0.409313-1.023284-0.511642-6.651344-3.172179-13.20036-6.446687-19.647047-9.925852 0 0-0.102328 0-0.102328-0.102328-11.767763-6.446687-23.22854-13.609673-34.382332-21.488958C191.405216 624.305386 132.259418 434.895573 246.867193 272.193465c24.968122-35.405616 35.610273-47.582692 69.173978-76.439292 0.409313-0.306985 9.823524-11.051464 31.619466-25.377436 138.859598-63.955231 255.820925-70.197262 381.582492 13.712002l-27.01469 26.196063c-7.469971 10.846807-2.865194 18.82842 10.232837 17.60048L829.934246 217.345458c13.20036-1.22794 21.079644-12.58639 17.498151-25.275107l-31.517138-113.584491c-3.479165-12.688718-12.58639-14.223643-20.056361-3.376836l-27.117018 39.191766c-92.30019-62.010992-203.121815-85.648846-313.022484-66.615769-11.051464 1.944239-22.0006 4.297792-32.745078 6.958329-0.102328 0-0.102328 0-0.204657 0-0.409313 0.102328-0.818627 0.204657-1.22794 0.306985C326.683322 79.406815 244.001999 134.664135 184.958529 213.559308c-0.511642 0.61397-1.023284 1.125612-1.432597 1.841911-1.944239 2.660538-3.888478 5.321075-5.832717 8.083941-3.069851 4.40012-6.242031 9.004897-9.107225 13.507345-0.409313 0.511642-0.61397 1.125612-0.920955 1.637254-48.708304 75.518337-72.243829 162.702109-68.150695 251.523134 0 0.306985 0 0.61397 0 0.920955 0.409313 8.697911 1.125612 17.498151 2.046567 26.093734 0 0.511642 0.204657 1.125612 0.306985 1.637254 0.920955 8.697911 2.148896 17.395823 3.683821 26.196063 15.451584 89.025682 57.406216 169.148796 120.338163 231.569102 0.102328 0.102328 0.306985 0.306985 0.409313 0.511642 0.102328 0.102328 0.102328 0.102328 0.204657 0.102328 16.884181 16.679524 35.303288 32.131108 55.154992 46.047767 51.880484 36.531228 109.593684 60.680723 171.502348 71.834516 18.82842 3.376836 36.735885-9.107225 40.112721-27.935645C499.004297 851.474368 491.125012 825.073648 473.72919 818.319976L473.72919 818.319976 473.72919 818.319976zM505.450984 240.267013c-11.767763 0-27.833317 17.293495-27.833317 29.061257l0 236.890177 209.977816 103.863296c3.172179 1.637254 6.446687 2.353553 9.823524 2.353553 7.674628 0 28.24263-6.139702 37.145198-16.781853 14.939942-24.251824-6.037374-51.061857-16.474868-56.48526l-162.804437-84.318577L555.284901 268.202658c0-11.767763-21.591286-28.754272-33.359049-28.754272L505.450984 240.267013 505.450984 240.267013z" p-id="14796"></path></svg>