<?xml version="1.0" standalone="no"?><!DOCTYPE svg PUBLIC "-//W3C//DTD SVG 1.1//EN" "http://www.w3.org/Graphics/SVG/1.1/DTD/svg11.dtd"><svg t="1628659164432" class="icon" viewBox="0 0 1024 1024" version="1.1" xmlns="http://www.w3.org/2000/svg" p-id="10095" xmlns:xlink="http://www.w3.org/1999/xlink" width="32" height="32"><defs><style type="text/css"></style></defs><path d="M526.360205 602.406068c-153.536779 0-278.53378-125.900159-278.533781-280.520727s124.997001-280.520727 278.533781-280.520726c153.536779 0 278.53378 125.900159 278.53378 280.520726s-124.997001 280.520727-278.53378 280.520727z m0-502.516846c-121.20374 0-219.828541 99.527959-219.828542 221.996119s98.624802 221.996119 219.828542 221.99612S746.188746 444.353501 746.188746 321.885341s-98.624802-221.996119-219.828541-221.996119z m0 0" p-id="10096"></path><path d="M749.801376 616.856588c-5.599577 0-11.018522-1.445052-15.714941-4.515787-28.720409-18.243782-59.789028-32.513671-92.302699-42.629035-15.353678-4.877051-24.02399-21.314518-19.327571-36.668196 4.877051-15.353678 21.314518-24.02399 36.668196-19.327571 37.390721 11.741048 73.155759 28.178515 106.211324 48.951138 11.018522 7.044629 16.076204 20.41136 12.463574 32.874934-3.431999 12.644205-14.811783 21.314518-27.997883 21.314517zM104.224378 979.384018c-16.256835 0-29.262304-13.1861-29.262304-29.262303 0-201.765391 128.067737-377.158582 318.633975-436.405716 15.534309-4.877051 31.971776 3.793262 36.668195 19.327571 4.877051 15.534309-3.793262 31.971776-19.327571 36.668196-166.000353 51.479979-277.449991 204.294232-277.449991 380.229317 0 16.256835-13.1861 29.442935-29.262304 29.442935zM924.833304 878.77227H583.43976c-16.256835 0-29.262304-13.1861-29.262304-29.262304 0-16.256835 13.1861-29.262304 29.262304-29.262303h341.393544c16.256835 0 29.262304 13.1861 29.262304 29.262303 0.180632 16.256835-13.005468 29.262304-29.262304 29.262304z m0 0" p-id="10097"></path><path d="M538.462515 872.088905c-11.921679 0-22.75957-7.405892-27.275357-18.424414-4.515788-11.199153-1.625684-23.843359 7.044629-32.152408l99.347327-93.928382c11.741048-11.199153 30.346093-10.657259 41.364615 1.083789 11.199153 11.741048 10.657259 30.346093-1.083789 41.364614l-99.347328 93.928383c-5.238314 5.418945-12.463574 8.128418-20.050097 8.128418z m0 0" p-id="10098"></path><path d="M637.809843 979.384018c-8.128418 0-15.895572-3.431999-21.495149-9.392838l-99.347328-107.114482c-11.018522-11.921679-10.295996-30.346093 1.625684-41.364615 11.921679-11.018522 30.346093-10.295996 41.364614 1.625684l99.347328 107.114482c7.947786 8.489681 10.115364 20.953255 5.418945 31.610513-4.515788 10.657259-15.173046 17.521256-26.914094 17.521256z m0 0" p-id="10099"></path></svg>