<?xml version="1.0" standalone="no"?><!DOCTYPE svg PUBLIC "-//W3C//DTD SVG 1.1//EN" "http://www.w3.org/Graphics/SVG/1.1/DTD/svg11.dtd"><svg t="1609406852896" class="icon" viewBox="0 0 1024 1024" version="1.1" xmlns="http://www.w3.org/2000/svg" p-id="2276" xmlns:xlink="http://www.w3.org/1999/xlink" width="128" height="128"><defs><style type="text/css"></style></defs><path d="M482.645333 882.688h-50.176a238.933333 238.933333 0 0 1-238.933333-238.933333V155.989333h604.842667v363.349334h-85.333334V241.322667H279.381333v402.944a153.6 153.6 0 0 0 153.6 153.6h50.176z" fill="#0f6349" p-id="2277" data-spm-anchor-id="a313x.7781069.0.i2" class="selected"></path><path d="M824.32 608.256l-49.152 49.152a31.232 31.232 0 0 1-44.202667 0 31.232 31.232 0 0 1 0-44.202667L780.117333 563.2a121.685333 121.685333 0 1 0 44.202667 44.202667z" fill="#FF6C39" p-id="2278" data-spm-anchor-id="a313x.7781069.0.i0" class=""></path><path d="M512.3584 803.191467l99.208533-99.208534 72.874667 72.891734-99.191467 99.191466z" fill="#FF6C39" p-id="2279" data-spm-anchor-id="a313x.7781069.0.i1" class=""></path><path d="M345.258667 316.245333h299.52v85.333334H345.258667zM345.258667 482.474667h193.194666v85.333333H345.258667z" fill="#0f6349" p-id="2280" data-spm-anchor-id="a313x.7781069.0.i3" class="selected"></path></svg>