<?xml version="1.0" standalone="no"?><!DOCTYPE svg PUBLIC "-//W3C//DTD SVG 1.1//EN" "http://www.w3.org/Graphics/SVG/1.1/DTD/svg11.dtd"><svg t="1609407231148" class="icon" viewBox="0 0 1024 1024" version="1.1" xmlns="http://www.w3.org/2000/svg" p-id="6717" xmlns:xlink="http://www.w3.org/1999/xlink" width="128" height="128"><defs><style type="text/css"></style></defs><path d="M653.354667 170.666667a171.690667 171.690667 0 0 0 168.832 203.050666c10.453333-0.042667 20.906667-1.066667 31.146666-2.986666v340.138666C853.333333 854.016 768.896 938.666667 625.578667 938.666667H313.429333C169.813333 938.666667 85.333333 854.016 85.333333 710.869333V399.189333C85.333333 256.085333 169.770667 170.666667 313.429333 170.666667z m5.162666 255.744l-4.992 0.341333a31.146667 31.146667 0 0 0-20.778666 12.544l-102.826667 132.266667-117.034667-92.16a31.573333 31.573333 0 0 0-44.672 5.973333l-126.037333 162.56a30.72 30.72 0 0 0-6.784 19.498667l0.128 4.693333a31.488 31.488 0 0 0 58.026667 13.653333l105.429333-136.362666 117.077333 91.776a31.573333 31.573333 0 0 0 45.013334-5.589334l121.941333-157.354666V477.44a32.170667 32.170667 0 0 0-5.973333-44.586667 31.146667 31.146667 0 0 0-23.509334-6.144z" fill="#0f6349" p-id="6718" data-spm-anchor-id="a313x.7781069.0.i17" class=""></path><path d="M832 192m-106.666667 0a106.666667 106.666667 0 1 0 213.333334 0 106.666667 106.666667 0 1 0-213.333334 0Z" fill="#ff6c39" opacity=".4" p-id="6719" data-spm-anchor-id="a313x.7781069.0.i19" class="selected"></path></svg>