<?xml version="1.0" standalone="no"?><!DOCTYPE svg PUBLIC "-//W3C//DTD SVG 1.1//EN" "http://www.w3.org/Graphics/SVG/1.1/DTD/svg11.dtd"><svg t="1609407621339" class="icon" viewBox="0 0 1024 1024" version="1.1" xmlns="http://www.w3.org/2000/svg" p-id="14076" xmlns:xlink="http://www.w3.org/1999/xlink" width="128" height="128"><defs><style type="text/css"></style></defs><path d="M694.458182 0c43.322182 0 78.452364 30.08 78.452363 67.176727V236.450909c0 20.398545-10.845091 39.703273-29.44 52.456727L467.514182 477.952c-13.207273 9.041455-29.486545 14.196364-46.382546 14.685091l-2.618181 0.034909c16.989091 0 33.512727 4.712727 47.092363 13.44l1.908364 1.28 190.603636 130.56c-58.030545 36.736-96.558545 101.480727-96.558545 175.232 0 71.738182 36.456727 134.958545 91.845818 172.16l-534.237091-0.011636c-42.658909 0-77.370182-29.160727-78.429091-65.477819L40.727273 918.155636V748.893091c0-19.712 10.123636-38.434909 27.671272-51.2l1.768728-1.256727 275.933091-189.044364c13.265455-9.076364 29.614545-14.242909 46.580363-14.696727l2.222546-0.023273-2.210909-0.034909c-16.989091-0.453818-33.326545-5.608727-46.592-14.685091L70.167273 288.896C51.549091 276.154182 40.727273 256.849455 40.727273 236.450909V67.176727C40.727273 30.08 75.857455 0 119.179636 0H694.458182z" fill="#0f6349" p-id="14077" data-spm-anchor-id="a313x.7781069.0.i28" class=""></path><path d="M770.990545 678.039273c77.498182 0 140.334545 62.836364 140.334546 140.346182 0 33.245091-11.554909 63.767273-30.871273 87.819636 0.581818 0.372364 20.968727 20.619636 24.506182 24.133818l0.523636 0.512 1.326546-1.326545a11.624727 11.624727 0 0 1 16.442182 0l49.349818 49.349818a11.636364 11.636364 0 0 1 0 16.453818l-24.669091 24.669091a11.636364 11.636364 0 0 1-16.453818 0l-49.338182-49.349818a11.636364 11.636364 0 0 1 0-16.453818l1.326545-1.326546s-24.250182-24.378182-24.645818-25.018182a139.741091 139.741091 0 0 1-87.831273 30.882909c-77.509818 0-140.334545-62.836364-140.334545-140.346181s62.824727-140.346182 140.334545-140.346182z m-1.431272 76.753454a62.161455 62.161455 0 1 0 0 124.322909 62.161455 62.161455 0 0 0 0-124.322909z" fill="#ff6c39" p-id="14078" data-spm-anchor-id="a313x.7781069.0.i27" class="selected"></path></svg>