<?xml version="1.0" standalone="no"?><!DOCTYPE svg PUBLIC "-//W3C//DTD SVG 1.1//EN" "http://www.w3.org/Graphics/SVG/1.1/DTD/svg11.dtd"><svg t="1609406942701" class="icon" viewBox="0 0 1024 1024" version="1.1" xmlns="http://www.w3.org/2000/svg" p-id="3171" xmlns:xlink="http://www.w3.org/1999/xlink" width="128" height="128"><defs><style type="text/css"></style></defs><path d="M997.2736 820.0192c0 96.768-76.288 203.9808-170.2912 203.9808-94.1056 0-170.2912-107.2128-170.2912-203.9808v-62.976a20.48 20.48 0 0 1 12.288-17.8176L815.2064 670.208a27.648 27.648 0 0 1 23.4496 0l146.2272 69.0176a20.48 20.48 0 0 1 12.3904 17.8176z" fill="#ff6c39" opacity=".8" p-id="3172" data-spm-anchor-id="a313x.7781069.0.i8" class=""></path><path d="M936.8576 479.0272C936.8576 737.28 733.0816 1024 481.792 1024S26.7264 737.28 26.7264 479.0272V239.0016a53.76 53.76 0 0 1 32.9728-47.616L450.56 6.8608a75.264 75.264 0 0 1 62.6688 0l390.7584 184.32a53.76 53.76 0 0 1 32.9728 47.616z" fill="#0f6349" opacity=".7" p-id="3173" data-spm-anchor-id="a313x.7781069.0.i6" class=""></path><path d="M463.6672 747.52a38.5024 38.5024 0 0 1-21.2992-6.2464 39.5264 39.5264 0 0 1-12.288-54.272l83.6608-130.9696h-136.192a39.7312 39.7312 0 0 1-32.9728-61.44l128-191.8976a39.64928 39.64928 0 0 1 65.9456 44.032L451.6864 476.672h134.3488a39.936 39.936 0 0 1 34.816 20.48 39.6288 39.6288 0 0 1-1.4336 40.3456L497.152 729.6A39.7312 39.7312 0 0 1 463.6672 747.52z" fill="#FFFFFF" p-id="3174"></path></svg>